<?xml version="1.0" encoding="UTF-8"?>
<svg version="1.1" xmlns="http://www.w3.org/2000/svg" width="1024" height="1024">
<path d="M0 0 C1.63291207 -0.00307895 1.63291207 -0.00307895 3.29881227 -0.0062201 C6.95999794 -0.01189105 10.62114599 -0.01043272 14.28233528 -0.00901413 C16.92850895 -0.01159772 19.57467959 -0.01457209 22.22085202 -0.01801753 C28.73941305 -0.02558989 35.25796588 -0.0277902 41.77653085 -0.02834659 C49.5849267 -0.02926099 57.39331499 -0.03593087 65.20170758 -0.04269341 C84.07487262 -0.05874866 102.94803684 -0.06465634 121.82120748 -0.06944216 C130.75191465 -0.07177878 139.68262117 -0.07538153 148.61332784 -0.07913754 C179.19177224 -0.09197319 209.77021629 -0.10269192 240.34866333 -0.10614014 C242.26800841 -0.10636177 244.1873535 -0.10658355 246.10669858 -0.10680549 C248.03065014 -0.10702613 249.95460171 -0.10724661 251.87855327 -0.10746694 C255.7382551 -0.10790949 259.59795694 -0.1083566 263.45765877 -0.10880661 C264.41463951 -0.108916 265.37162026 -0.10902539 266.35760042 -0.1091381 C297.37866706 -0.11276768 328.39971032 -0.12868392 359.42076801 -0.15199697 C392.22757329 -0.17660692 425.0343652 -0.19031354 457.84117997 -0.19150805 C461.44438943 -0.1916795 465.04759888 -0.19189493 468.65080833 -0.19214249 C469.5380024 -0.19219826 470.42519647 -0.19225402 471.3392752 -0.19231148 C485.60197354 -0.19346098 499.86464783 -0.20447441 514.12733806 -0.21902954 C528.47104285 -0.23341391 542.8147169 -0.2366206 557.15842693 -0.22858956 C565.67324925 -0.2241423 574.18797218 -0.22795762 582.70278139 -0.24382807 C588.39997135 -0.25361232 594.09709205 -0.25236711 599.79428145 -0.24239184 C603.0342552 -0.23702447 606.27400224 -0.23789221 609.51396714 -0.24890056 C646.41900477 -0.36631115 677.25002421 8.9316112 704.14418221 35.13142776 C711.14418221 42.44561089 711.14418221 42.44561089 711.14418221 45.13142776 C712.13418221 45.46142776 713.12418221 45.79142776 714.14418221 46.13142776 C715.53090096 47.90877151 715.53090096 47.90877151 716.83168221 50.06892776 C717.48717049 51.13433792 717.48717049 51.13433792 718.15590096 52.22127151 C719.14418221 54.13142776 719.14418221 54.13142776 719.14418221 56.13142776 C719.80418221 56.13142776 720.46418221 56.13142776 721.14418221 56.13142776 C728.47346172 69.80789972 735.45485602 84.28706328 735.14418221 100.13142776 C735.80418221 100.13142776 736.46418221 100.13142776 737.14418221 100.13142776 C738.79478354 112.39303767 738.60006411 124.86042318 737.14418221 137.13142776 C736.48418221 137.13142776 735.82418221 137.13142776 735.14418221 137.13142776 C735.13000252 137.81205276 735.11582283 138.49267776 735.10121346 139.19392776 C734.64768994 148.41148677 732.12015297 156.47805153 729.14418221 165.13142776 C728.48418221 165.13142776 727.82418221 165.13142776 727.14418221 165.13142776 C726.9604908 166.22777542 726.9604908 166.22777542 726.77308846 167.34627151 C724.2676668 178.44171027 716.13425349 189.35868641 708.14418221 197.13142776 C707.11164581 198.35078004 706.08994884 199.57943199 705.08168221 200.81892776 C685.88039384 222.83419804 656.75301452 235.178019 628.14418221 238.13142776 C619.40724187 238.65751726 610.64630067 238.53756649 601.8975544 238.51237869 C599.26520096 238.51584039 596.63287337 238.52048644 594.00052708 238.52656043 C588.30439748 238.53732855 582.60835339 238.5371084 576.91222 238.52941895 C568.44167629 238.51801555 559.97120397 238.52390151 551.50066066 238.53304387 C536.36830017 238.54879987 521.23597781 238.54748854 506.10361375 238.53880713 C492.86258219 238.5312484 479.62156458 238.52929598 466.38053131 238.53287506 C465.06099824 238.53321879 465.06099824 238.53321879 463.71480793 238.53356947 C460.14353477 238.53450354 456.57226162 238.53545875 453.00098847 238.53644876 C419.53076943 238.54561657 386.06057461 238.53731954 352.59035931 238.52115807 C322.87448197 238.50691854 293.1586432 238.50819933 263.44276619 238.52254105 C230.02765012 238.53861436 196.61255543 238.54497001 163.19743603 238.53570426 C159.63375263 238.53474215 156.07006922 238.53380363 152.5063858 238.53287506 C151.6289673 238.53263783 150.75154879 238.5324006 149.84754185 238.53215618 C136.61494242 238.52874802 123.38235848 238.53272655 110.1497612 238.54031372 C95.10159377 238.54889906 80.05347028 238.54673069 65.00530831 238.53047149 C56.58999435 238.52167816 48.17477562 238.52106513 39.75946419 238.53241001 C34.13153731 238.53915867 28.50368645 238.53491183 22.8757708 238.52189571 C19.67391747 238.51479068 16.47228887 238.51392192 13.27043537 238.52311365 C0.53497644 238.55686221 -11.49617337 238.44347594 -23.85581779 235.13142776 C-24.63631184 234.93947087 -25.41680588 234.74751397 -26.22095126 234.5497402 C-55.05560636 227.13614633 -82.4899126 207.74126976 -97.85581779 182.13142776 C-103.85581779 170.81799493 -103.85581779 170.81799493 -103.85581779 168.13142776 C-104.51581779 168.13142776 -105.17581779 168.13142776 -105.85581779 168.13142776 C-108.85262787 159.83767294 -111.62500786 152.04908429 -111.85581779 143.13142776 C-112.51581779 143.13142776 -113.17581779 143.13142776 -113.85581779 143.13142776 C-116.34162965 127.04023496 -117.08242031 111.17801347 -113.85581779 95.13142776 C-113.19581779 95.13142776 -112.53581779 95.13142776 -111.85581779 95.13142776 C-111.84163811 94.49978714 -111.82745842 93.86814651 -111.81284904 93.21736526 C-111.05865056 79.07104776 -104.67238489 67.20842257 -97.85581779 55.13142776 C-97.19581779 55.13142776 -96.53581779 55.13142776 -95.85581779 55.13142776 C-95.60831779 54.43017776 -95.36081779 53.72892776 -95.10581779 53.00642776 C-93.68401541 49.73628229 -91.98335491 46.99030577 -89.85581779 44.13142776 C-89.19581779 44.13142776 -88.53581779 44.13142776 -87.85581779 44.13142776 C-87.60831779 43.57455276 -87.36081779 43.01767776 -87.10581779 42.44392776 C-83.87218615 36.46170922 -78.99133556 32.42885756 -73.85581779 28.13142776 C-73.11331779 27.48947464 -72.37081779 26.84752151 -71.60581779 26.18611526 C-51.81946886 9.58901337 -25.74850411 -0.04518415 0 0 Z " fill="#F7F7F7" transform="translate(200.8558177947998,393.8685722351074)"/>
<path d="M0 0 C1.63291207 -0.00307895 1.63291207 -0.00307895 3.29881227 -0.0062201 C6.95999794 -0.01189105 10.62114599 -0.01043272 14.28233528 -0.00901413 C16.92850895 -0.01159772 19.57467959 -0.01457209 22.22085202 -0.01801753 C28.73941305 -0.02558989 35.25796588 -0.0277902 41.77653085 -0.02834659 C49.5849267 -0.02926099 57.39331499 -0.03593087 65.20170758 -0.04269341 C84.07487262 -0.05874866 102.94803684 -0.06465634 121.82120748 -0.06944216 C130.75191465 -0.07177878 139.68262117 -0.07538153 148.61332784 -0.07913754 C179.19177224 -0.09197319 209.77021629 -0.10269192 240.34866333 -0.10614014 C242.26800841 -0.10636177 244.1873535 -0.10658355 246.10669858 -0.10680549 C248.03065014 -0.10702613 249.95460171 -0.10724661 251.87855327 -0.10746694 C255.7382551 -0.10790949 259.59795694 -0.1083566 263.45765877 -0.10880661 C264.41463951 -0.108916 265.37162026 -0.10902539 266.35760042 -0.1091381 C297.37866706 -0.11276768 328.39971032 -0.12868392 359.42076801 -0.15199697 C392.22757329 -0.17660692 425.0343652 -0.19031354 457.84117997 -0.19150805 C461.44438943 -0.1916795 465.04759888 -0.19189493 468.65080833 -0.19214249 C469.5380024 -0.19219826 470.42519647 -0.19225402 471.3392752 -0.19231148 C485.60197354 -0.19346098 499.86464783 -0.20447441 514.12733806 -0.21902954 C528.47104285 -0.23341391 542.8147169 -0.2366206 557.15842693 -0.22858956 C565.67324925 -0.2241423 574.18797218 -0.22795762 582.70278139 -0.24382807 C588.39997135 -0.25361232 594.09709205 -0.25236711 599.79428145 -0.24239184 C603.0342552 -0.23702447 606.27400224 -0.23789221 609.51396714 -0.24890056 C646.41900477 -0.36631115 677.25002421 8.9316112 704.14418221 35.13142776 C711.14418221 42.44561089 711.14418221 42.44561089 711.14418221 45.13142776 C712.13418221 45.46142776 713.12418221 45.79142776 714.14418221 46.13142776 C715.53090096 47.90877151 715.53090096 47.90877151 716.83168221 50.06892776 C717.48717049 51.13433792 717.48717049 51.13433792 718.15590096 52.22127151 C719.14418221 54.13142776 719.14418221 54.13142776 719.14418221 56.13142776 C719.80418221 56.13142776 720.46418221 56.13142776 721.14418221 56.13142776 C728.47346172 69.80789972 735.45485602 84.28706328 735.14418221 100.13142776 C735.80418221 100.13142776 736.46418221 100.13142776 737.14418221 100.13142776 C738.79478354 112.39303767 738.60006411 124.86042318 737.14418221 137.13142776 C736.48418221 137.13142776 735.82418221 137.13142776 735.14418221 137.13142776 C735.13000252 137.81205276 735.11582283 138.49267776 735.10121346 139.19392776 C734.64768994 148.41148677 732.12015297 156.47805153 729.14418221 165.13142776 C728.48418221 165.13142776 727.82418221 165.13142776 727.14418221 165.13142776 C726.9604908 166.22777542 726.9604908 166.22777542 726.77308846 167.34627151 C724.2676668 178.44171027 716.13425349 189.35868641 708.14418221 197.13142776 C707.11164581 198.35078004 706.08994884 199.57943199 705.08168221 200.81892776 C685.88039384 222.83419804 656.75301452 235.178019 628.14418221 238.13142776 C619.40724187 238.65751726 610.64630067 238.53756649 601.8975544 238.51237869 C599.26520096 238.51584039 596.63287337 238.52048644 594.00052708 238.52656043 C588.30439748 238.53732855 582.60835339 238.5371084 576.91222 238.52941895 C568.44167629 238.51801555 559.97120397 238.52390151 551.50066066 238.53304387 C536.36830017 238.54879987 521.23597781 238.54748854 506.10361375 238.53880713 C492.86258219 238.5312484 479.62156458 238.52929598 466.38053131 238.53287506 C465.06099824 238.53321879 465.06099824 238.53321879 463.71480793 238.53356947 C460.14353477 238.53450354 456.57226162 238.53545875 453.00098847 238.53644876 C419.53076943 238.54561657 386.06057461 238.53731954 352.59035931 238.52115807 C322.87448197 238.50691854 293.1586432 238.50819933 263.44276619 238.52254105 C230.02765012 238.53861436 196.61255543 238.54497001 163.19743603 238.53570426 C159.63375263 238.53474215 156.07006922 238.53380363 152.5063858 238.53287506 C151.6289673 238.53263783 150.75154879 238.5324006 149.84754185 238.53215618 C136.61494242 238.52874802 123.38235848 238.53272655 110.1497612 238.54031372 C95.10159377 238.54889906 80.05347028 238.54673069 65.00530831 238.53047149 C56.58999435 238.52167816 48.17477562 238.52106513 39.75946419 238.53241001 C34.13153731 238.53915867 28.50368645 238.53491183 22.8757708 238.52189571 C19.67391747 238.51479068 16.47228887 238.51392192 13.27043537 238.52311365 C0.53497644 238.55686221 -11.49617337 238.44347594 -23.85581779 235.13142776 C-24.63631184 234.93947087 -25.41680588 234.74751397 -26.22095126 234.5497402 C-55.05560636 227.13614633 -82.4899126 207.74126976 -97.85581779 182.13142776 C-103.85581779 170.81799493 -103.85581779 170.81799493 -103.85581779 168.13142776 C-104.51581779 168.13142776 -105.17581779 168.13142776 -105.85581779 168.13142776 C-108.85262787 159.83767294 -111.62500786 152.04908429 -111.85581779 143.13142776 C-112.51581779 143.13142776 -113.17581779 143.13142776 -113.85581779 143.13142776 C-116.34162965 127.04023496 -117.08242031 111.17801347 -113.85581779 95.13142776 C-113.19581779 95.13142776 -112.53581779 95.13142776 -111.85581779 95.13142776 C-111.84163811 94.49978714 -111.82745842 93.86814651 -111.81284904 93.21736526 C-111.05865056 79.07104776 -104.67238489 67.20842257 -97.85581779 55.13142776 C-97.19581779 55.13142776 -96.53581779 55.13142776 -95.85581779 55.13142776 C-95.60831779 54.43017776 -95.36081779 53.72892776 -95.10581779 53.00642776 C-93.68401541 49.73628229 -91.98335491 46.99030577 -89.85581779 44.13142776 C-89.19581779 44.13142776 -88.53581779 44.13142776 -87.85581779 44.13142776 C-87.60831779 43.57455276 -87.36081779 43.01767776 -87.10581779 42.44392776 C-83.87218615 36.46170922 -78.99133556 32.42885756 -73.85581779 28.13142776 C-73.11331779 27.48947464 -72.37081779 26.84752151 -71.60581779 26.18611526 C-51.81946886 9.58901337 -25.74850411 -0.04518415 0 0 Z M-81.32066154 46.00252151 C-86.9612591 53.26298299 -91.5384537 61.03290325 -95.85581779 69.13142776 C-96.18799309 69.74034866 -96.52016838 70.34926956 -96.86240959 70.97664261 C-99.62794583 76.22305659 -101.40191051 81.56905812 -103.04331779 87.25642776 C-103.30306389 88.12396683 -103.56280998 88.99150589 -103.83042717 89.88533401 C-109.48115011 109.07150959 -108.89658934 132.06801415 -102.85581779 151.13142776 C-102.48198967 152.36506058 -102.10816154 153.59869339 -101.72300529 154.86970901 C-97.36222182 168.08201655 -90.61121664 179.37562322 -81.85581779 190.13142776 C-81.11847404 191.04666214 -80.38113029 191.96189651 -79.62144279 192.90486526 C-59.35482659 216.63992921 -30.38046014 228.2999242 0.14418221 231.13142776 C3.68369224 231.2689658 7.21920286 231.26757836 10.76105499 231.26006222 C11.81168469 231.26181525 12.8623144 231.26356829 13.94478136 231.26537445 C17.47076467 231.27003209 20.9967067 231.26756953 24.52269173 231.26514053 C27.07414427 231.26700863 29.62559652 231.26930933 32.17704833 231.27200586 C37.72748008 231.2768511 43.27789936 231.27857806 48.8283329 231.27754974 C57.08256224 231.27602424 65.33678194 231.28018792 73.5910094 231.28542437 C89.19324526 231.29509577 104.79547783 231.29790856 120.39771633 231.29848143 C132.45019512 231.29894106 144.50267262 231.30099988 156.55515099 231.30418205 C160.0251861 231.30507961 163.49522122 231.30596943 166.96525633 231.30685693 C167.82794477 231.30707798 168.69063321 231.30729903 169.57946372 231.30752677 C193.84714226 231.31368138 218.11482034 231.31762731 242.38249969 231.31718349 C243.75498665 231.31716013 243.75498665 231.31716013 245.15520061 231.31713629 C249.79267122 231.31705318 254.43014184 231.31695414 259.06761245 231.31685158 C260.44911594 231.31682166 260.44911594 231.31682166 261.85852858 231.31679114 C263.72102192 231.3167507 265.58351526 231.3167089 267.44600859 231.31666575 C296.4083931 231.31605331 325.37076589 231.3235536 354.33314705 231.33723831 C386.8806059 231.35261067 419.42805706 231.3612038 451.97551978 231.36027509 C455.44869844 231.36020046 458.92187711 231.36015175 462.39505577 231.36012077 C463.67780729 231.36010329 463.67780729 231.36010329 464.98647299 231.36008546 C478.72913584 231.36005473 492.4717885 231.36643195 506.21444833 231.37505304 C520.03714796 231.3835447 533.85983274 231.38450768 547.68253355 231.37794372 C555.88608002 231.37425781 564.08958124 231.37605162 572.29312288 231.38588606 C578.43152003 231.39262057 584.56986936 231.38880648 590.70826431 231.38101283 C593.1820844 231.37947997 595.65590945 231.3812859 598.12972371 231.38687291 C635.38615308 231.46540461 669.61770654 225.14883949 697.14418221 198.13142776 C707.06102865 187.62871575 715.2167094 175.30599324 721.14418221 162.13142776 C721.88668221 160.52074417 721.88668221 160.52074417 722.64418221 158.87752151 C724.33745439 154.89785053 725.32747523 150.84274136 726.26918221 146.63142776 C726.43804939 145.91084183 726.60691658 145.19025589 726.78090096 144.44783401 C731.1340808 125.49264934 731.00307813 104.7362283 725.14418221 86.13142776 C724.83069832 85.11049026 724.83069832 85.11049026 724.51088142 84.06892776 C718.98047045 66.57045888 709.12701029 52.01055914 696.14418221 39.13142776 C695.57957283 38.50881058 695.01496346 37.88619339 694.43324471 37.24470901 C677.52077278 18.94271475 650.65827639 8.27922326 626.10055351 6.96904755 C618.19517182 6.7343658 610.28914477 6.77584259 602.3812778 6.82724595 C598.95139904 6.84626408 595.52150851 6.84778264 592.09158516 6.85132217 C585.62512104 6.86057006 579.15881283 6.88508314 572.69241673 6.91537064 C565.31854529 6.94914363 557.94466559 6.96545763 550.57073581 6.98045695 C535.42846507 7.01164111 520.28633939 7.0642569 505.14418221 7.13142776 C505.14418221 8.12142776 505.14418221 9.11142776 505.14418221 10.13142776 C358.29418221 10.13142776 211.44418221 10.13142776 60.14418221 10.13142776 C60.14418221 9.14142776 60.14418221 8.15142776 60.14418221 7.13142776 C51.70210107 7.06127108 43.26014596 7.00828883 34.81784344 6.97599125 C30.89583638 6.96047374 26.97403178 6.93949746 23.05214119 6.90510941 C19.25250445 6.87200977 15.45305981 6.85447084 11.65328979 6.84679604 C10.21873585 6.84134162 8.78418989 6.8306976 7.34972 6.81423759 C-26.60577671 6.44085548 -59.03603974 20.04499849 -81.32066154 46.00252151 Z " fill="#DADCDE" transform="translate(200.8558177947998,393.8685722351074)"/>
<path d="M0 0 C1.09591979 -0.00260729 2.19183959 -0.00521457 3.32096907 -0.00790086 C6.98290013 -0.01418302 10.64465851 -0.00624863 14.30658436 0.00165081 C16.96262776 0.00006203 19.61865978 -0.00231922 22.27470046 -0.0056656 C28.04409237 -0.01133745 33.81344486 -0.00961253 39.5828352 -0.00298023 C48.16206107 0.00685489 56.7412582 0.00520053 65.32048744 0.00126947 C79.75577703 -0.00500073 94.19105027 -0.00183968 108.62633801 0.00686359 C122.92156787 0.01548055 137.21679039 0.02038369 151.51202297 0.02019596 C152.40152682 0.02018832 153.29103066 0.02018067 154.20748917 0.02017279 C157.8182819 0.02013188 161.42907462 0.02006627 165.03986735 0.01996698 C198.90543296 0.01906109 232.77098738 0.02900315 266.6365491 0.04439665 C296.72714944 0.05802383 326.81774183 0.06425777 356.90834522 0.06358624 C358.8408957 0.06354582 360.77344618 0.06350546 362.70599665 0.06346516 C364.13911929 0.06343463 364.13911929 0.06343463 365.60119389 0.06340349 C370.41058444 0.06330269 375.21997499 0.06321211 380.02936554 0.06313324 C380.97817714 0.06311653 381.92698875 0.06309981 382.90455222 0.06308259 C408.04747763 0.06271748 433.19040205 0.06725535 458.33332664 0.0734598 C459.22760975 0.07368008 460.12189285 0.07390035 461.04327545 0.07412729 C464.63940244 0.07501552 468.23552942 0.07590392 471.8316564 0.07681825 C484.34500614 0.07997839 496.85835511 0.08148753 509.37170522 0.08192974 C525.4946936 0.08252666 541.61767542 0.08651762 557.74066099 0.0963612 C566.26847037 0.10147778 574.79627014 0.10388503 583.32408098 0.10236501 C589.01830255 0.10163095 594.71251475 0.10453154 600.40673332 0.11040882 C603.65226302 0.11366035 606.89776855 0.11479872 610.14329978 0.11264823 C613.63929638 0.11058772 617.13523411 0.11463998 620.63122559 0.12025452 C621.63865927 0.1181992 622.64609296 0.11614388 623.68405494 0.11402628 C629.09175722 0.12995617 634.27620971 0.45429693 639.62685108 1.24888897 C639.62685108 1.57888897 639.62685108 1.90888897 639.62685108 2.24888897 C594.74685108 1.91888897 549.86685108 1.58888897 503.62685108 1.24888897 C503.62685108 4.21888897 503.62685108 7.18888897 503.62685108 10.24888897 C431.68685108 10.24888897 359.74685108 10.24888897 285.62685108 10.24888897 C285.62685108 7.27888897 285.62685108 4.30888897 285.62685108 1.24888897 C248.05434137 1.33066192 210.48187086 1.42283158 172.90942171 1.52894058 C168.47343484 1.54145942 164.03744772 1.5538922 159.60146046 1.56627178 C158.71833697 1.56873778 157.83521348 1.57120377 156.92532867 1.57374449 C142.62678697 1.61346587 128.32823736 1.64621596 114.02967268 1.67638879 C99.35752931 1.70750514 84.68541946 1.74611535 70.01331377 1.79167902 C60.96018891 1.81955706 51.90708856 1.84159309 42.85393232 1.85615148 C36.64546177 1.86669532 30.43703868 1.88451965 24.2286039 1.90805601 C20.64692813 1.92141966 17.06531887 1.93158574 13.48361683 1.93310261 C9.59774383 1.93483233 5.71202308 1.95189936 1.8261919 1.97041607 C0.69777394 1.96848133 -0.43064403 1.9665466 -1.59325647 1.96455324 C-7.55588373 2.0070684 -12.65102788 2.5725613 -18.37314892 4.24888897 C-21.0937686 4.45881333 -23.63710592 4.34660479 -26.37314892 4.24888897 C-18.40515945 -0.1518593 -8.87978405 -0.04409827 0 0 Z " fill="#43865C" transform="translate(201.37314891815186,393.7511110305786)"/>
<path d="M0 0 C74.58 0 149.16 0 226 0 C226 2.97 226 5.94 226 9 C151.42 9 76.84 9 0 9 C0 6.03 0 3.06 0 0 Z " fill="#F7B421" transform="translate(261,395)"/>
<path d="M0 0 C12.21 0 24.42 0 37 0 C37.61029576 15.86768975 37.71109572 25.62364756 27 38 C16.09337428 46.5004217 3.47415078 48.36111972 -10 47 C-20.94293151 44.44498752 -29.5537595 37.02473669 -36 28 C-36 27.01 -36 26.02 -36 25 C-33.69921875 22.9921875 -33.69921875 22.9921875 -30.6875 20.875 C-29.70136719 20.17117188 -28.71523437 19.46734375 -27.69921875 18.7421875 C-25 17 -25 17 -22 16 C-21.6596875 16.51949219 -21.319375 17.03898438 -20.96875 17.57421875 C-17.42507309 22.67296665 -14.02837958 26.97193403 -8 29 C-1.12057457 29.92841803 5.75458784 30.12499295 12.125 27.0625 C16.94648273 23.65561379 16.94648273 23.65561379 21 15 C14.07 15 7.14 15 0 15 C0 10.05 0 5.1 0 0 Z " fill="#2EA357" transform="translate(222,508)"/>
<path d="M0 0 C0.56203125 0.44214844 1.1240625 0.88429688 1.703125 1.33984375 C0.30679393 4.52544327 -1.34244993 6.5792822 -3.859375 8.96484375 C-6.43702889 11.38506334 -6.43702889 11.38506334 -8.296875 14.33984375 C-10.56451067 13.20602592 -12.78197753 12.06022133 -14.98046875 10.79296875 C-21.20926958 8.06374153 -29.02943867 8.17997644 -35.58203125 9.9609375 C-41.25932011 12.8707097 -45.92231646 18.59072667 -48.734375 24.21484375 C-49.83946689 30.35424313 -49.65154617 36.26007952 -48.296875 42.33984375 C-52.71091928 46.42899644 -56.7310022 49.97434781 -62.296875 52.33984375 C-67.5289273 42.78566128 -67.93947509 29.83010014 -65.61328125 19.22265625 C-61.11778087 7.24709093 -51.9928323 -1.20106238 -40.69140625 -6.71484375 C-27.08455278 -12.08655425 -11.50147249 -8.31313913 0 0 Z " fill="#F44B39" transform="translate(247.296875,481.66015625)"/>
<path d="M0 0 C4.02301023 0.59762109 6.95239481 1.91602021 10.5 3.875 C15.93953329 6.68553759 21.0954784 8.20061293 27.08984375 9.359375 C30 10 30 10 32.13997227 11.00155145 C35.95558204 12.33359799 39.67056065 12.46650003 43.67059994 12.61580181 C44.98094508 12.67218528 44.98094508 12.67218528 46.31776183 12.72970782 C57.96421112 13.18142111 69.61714916 13.14852217 81.270401 13.14717102 C83.88099532 13.15047759 86.49158914 13.1542048 89.10218233 13.1583125 C95.48234544 13.16754952 101.86250162 13.17154527 108.24267058 13.17383147 C115.8959924 13.17681675 123.54930525 13.18552694 131.20262231 13.19424575 C149.68412407 13.21498892 168.16562732 13.22554097 186.64713799 13.23437535 C195.39819895 13.23859341 204.14925924 13.24381356 212.90031963 13.24905988 C242.88884454 13.26693467 272.87736966 13.2819313 302.86589909 13.28938007 C304.74473567 13.28985482 306.62357225 13.29033071 308.50240883 13.29080774 C309.434069 13.29104411 310.36572918 13.29128049 311.32562148 13.29152403 C316.04528737 13.29272514 320.76495326 13.29394062 325.48461914 13.29516602 C326.88951679 13.29552624 326.88951679 13.29552624 328.32279621 13.29589374 C358.70949165 13.30379183 389.09614812 13.32724209 419.48282653 13.35972196 C451.65418496 13.39404642 483.82552059 13.41373319 515.99689764 13.41702431 C519.53028994 13.41744182 523.06368222 13.41792138 526.59707451 13.41844749 C527.9019846 13.41863228 527.9019846 13.41863228 529.23325651 13.4188208 C543.20567714 13.4211485 557.17805224 13.43678312 571.15045667 13.45728934 C585.19800057 13.47757868 599.24548999 13.48300976 613.29304583 13.47351871 C621.62758148 13.46831736 629.9619353 13.47411664 638.29644465 13.49605338 C644.53362984 13.51122345 650.77063254 13.50527217 657.00781696 13.49138286 C659.52032968 13.48900946 662.03286011 13.49331624 664.54534579 13.50521151 C682.10288661 13.58314879 699.35976748 12.89894443 715.5 5.1875 C722.64060694 1.88020231 722.64060694 1.88020231 726 3 C704.13694638 15.35052308 680.25854059 16.45150174 655.75337219 16.38095093 C653.12101876 16.38441263 650.48869116 16.38905868 647.85634488 16.39513266 C642.16021528 16.40590079 636.46417119 16.40568064 630.7680378 16.39799118 C622.29749408 16.38658778 613.82702177 16.39247375 605.35647845 16.4016161 C590.22411797 16.41737211 575.0917956 16.41606078 559.95943154 16.40737936 C546.71839999 16.39982064 533.47738237 16.39786822 520.23634911 16.4014473 C518.91681603 16.40179103 518.91681603 16.40179103 517.57062573 16.40214171 C513.99935257 16.40307578 510.42807941 16.40403099 506.85680626 16.405021 C473.38658722 16.4141888 439.91639241 16.40589177 406.44617711 16.38973031 C376.73029977 16.37549078 347.01446099 16.37677156 317.29858398 16.39111328 C283.88346792 16.4071866 250.46837323 16.41354224 217.05325383 16.40427649 C213.48957042 16.40331439 209.92588701 16.40237586 206.3622036 16.4014473 C205.48478509 16.40121006 204.60736659 16.40097283 203.70335965 16.40072841 C190.47076022 16.39732026 177.23817628 16.40129879 164.00557899 16.40888596 C148.95741156 16.41747129 133.90928807 16.41530292 118.8611261 16.39904372 C110.44581215 16.39025039 102.03059342 16.38963737 93.61528198 16.40098225 C87.98735511 16.4077309 82.35950425 16.40348406 76.7315886 16.39046794 C73.52973527 16.38336292 70.32810666 16.38249416 67.12625317 16.39168589 C54.39301322 16.42542856 42.35662336 16.31824779 30 13 C29.20894169 12.80276097 28.41788337 12.60552193 27.6028536 12.40230596 C17.75996944 9.82751377 8.92090965 5.8368057 0 1 C0 0.67 0 0.34 0 0 Z " fill="#5C5D60" transform="translate(147,616)"/>
<path d="M0 0 C36.96 0 73.92 0 112 0 C112 2.97 112 5.94 112 9 C75.04 9 38.08 9 0 9 C0 6.03 0 3.06 0 0 Z " fill="#E8433D" transform="translate(261,395)"/>
<path d="M0 0 C36.63 0 73.26 0 111 0 C111 2.97 111 5.94 111 9 C74.37 9 37.74 9 0 9 C0 6.03 0 3.06 0 0 Z " fill="#3F83E5" transform="translate(594,395)"/>
<path d="M0 0 C2.5625 1.5 2.5625 1.5 4 3 C4.33 2.34 4.66 1.68 5 1 C6.98 1 8.96 1 11 1 C11.07451364 5.3049777 11.12877223 9.60960734 11.16479492 13.91503906 C11.17982196 15.37767075 11.20024955 16.84025782 11.22631836 18.30273438 C11.26297267 20.4128728 11.27978676 22.52241226 11.29296875 24.6328125 C11.3086792 25.90012207 11.32438965 27.16743164 11.34057617 28.47314453 C10.84279027 33.62799408 9.27119691 36.8528223 5.4375 40.3125 C0.70425874 43.58935934 -3.34605492 43.49940209 -9 43 C-12.74216409 41.40758975 -14.87672063 39.46429791 -17 36 C-17 35.34 -17 34.68 -17 34 C-14.75 33.25 -14.75 33.25 -12 33 C-11.071875 33.9590625 -11.071875 33.9590625 -10.125 34.9375 C-8.07297674 37.33217886 -8.07297674 37.33217886 -4.5625 37.5 C-0.36851383 36.91137036 1.22211464 36.18639792 4 33 C4.89055736 29.35817665 4.89055736 29.35817665 5 26 C4.154375 26.66 3.30875 27.32 2.4375 28 C-1.55712785 30.32414711 -3.45452321 30.64935383 -8 30 C-13.08643801 27.26114877 -16.17004027 24.4898792 -18 19 C-18.54225459 14.33305478 -18.4698456 10.92228952 -16.3125 6.6875 C-11.27422994 0.83221318 -7.74793325 -1.25759364 0 0 Z " fill="#424444" transform="translate(383,504)"/>
<path d="M0 0 C3 2 3 2 5 4 C5.33 3.01 5.66 2.02 6 1 C7.65 1 9.3 1 11 1 C11.07449251 5.44739413 11.12876257 9.8944519 11.16479492 14.34228516 C11.17982543 15.85341727 11.20025564 17.36450618 11.22631836 18.87548828 C11.26295689 21.05512187 11.27978338 23.23417575 11.29296875 25.4140625 C11.3086792 26.7232666 11.32438965 28.0324707 11.34057617 29.38134766 C10.8922706 34.14463454 9.57312938 37.5743515 6 40.8125 C1.53764511 43.46202321 -2.95345128 43.62005377 -8 43 C-11.75319208 41.15752389 -13.5026965 39.994607 -15.375 36.25 C-15.58125 35.5075 -15.7875 34.765 -16 34 C-13.8125 33.25 -13.8125 33.25 -11 33 C-9.32916181 34.32810215 -7.66270287 35.66172696 -6 37 C-3 37.75 -3 37.75 0 37 C3.41292944 34.4213422 4.78790219 32.86470646 5.8125 28.6875 C5.874375 27.800625 5.93625 26.91375 6 26 C5.175 26.66 4.35 27.32 3.5 28 C-0.26563649 30.48674108 -3.59629822 30.87019257 -8 30 C-12.48888973 27.71320712 -14.77072932 25.47135327 -17 21 C-17.82885269 15.45191396 -17.7240695 10.52859117 -15.3125 5.4375 C-10.75812375 0.63694125 -6.58541044 -1.26131853 0 0 Z " fill="#3B3D3F" transform="translate(759,504)"/>
<path d="M0 0 C12.21 0 24.42 0 37 0 C37.94615385 24.6 37.94615385 24.6 29.48828125 34.828125 C28.125 36.25 28.125 36.25 26 38 C22.33333333 34.33333333 18.66666667 30.66666667 15 27 C17 23 19 19 21 15 C14.07 15 7.14 15 0 15 C0 10.05 0 5.1 0 0 Z " fill="#3C7EED" transform="translate(222,508)"/>
<path d="M0 0 C4.81852225 2.36380337 7.67076821 5.16236475 10 10 C10.65958055 14.61706388 10.62032622 18.57324969 8.75 22.875 C5.31905457 27.04114802 3.09587324 29.65979415 -2.48828125 30.2734375 C-11.05357846 30.58145649 -11.05357846 30.58145649 -14.5625 27.75 C-19.07442196 22.6596265 -19.55152925 18.70437125 -19.453125 11.98828125 C-18.75981485 7.41602031 -16.61671206 4.77060052 -13 2 C-8.75706317 -0.54232652 -4.8338881 -0.67254095 0 0 Z " fill="#535556" transform="translate(694,504)"/>
<path d="M0 0 C3.71744285 2.18991179 6.19345422 3.85550009 7.7109375 8.015625 C8.37794774 13.58438491 8.44265878 18.47088008 6.0234375 23.578125 C1.97502747 27.84536801 -0.78635256 29.21629607 -6.6640625 29.578125 C-11.74069887 29.44110378 -14.45924685 28.2747655 -17.984375 24.6484375 C-21.28093676 20.52280032 -21.79250008 16.46652116 -21.671875 11.296875 C-20.84175554 6.35004068 -17.72105437 3.24872911 -14.0390625 0.078125 C-9.25653782 -1.76966863 -4.7724719 -2.0523258 0 0 Z " fill="#454748" transform="translate(729.2890625,504.984375)"/>
<path d="M0 0 C2.45911875 1.26468964 3.20280997 1.73153772 4.0859375 4.390625 C4.18132813 5.00421875 4.27671875 5.6178125 4.375 6.25 C2.6875 7.4375 2.6875 7.4375 0.375 8.25 C-0.32625 7.79625 -1.0275 7.3425 -1.75 6.875 C-5.99071206 4.47807579 -9.85770404 4.69904445 -14.625 5.25 C-18.41327039 6.5127568 -20.22544481 7.8399302 -23 10.6875 C-25.37213423 15.88794812 -25.3888503 20.62528412 -24.625 26.25 C-22.5151567 30.70411364 -20.24310742 33.44291449 -15.625 35.25 C-9.69616617 35.96503524 -4.63839319 35.79605859 0.375 32.25 C2.67075708 29.16260255 3.42907608 27.03369567 4.375 23.25 C-0.575 23.25 -5.525 23.25 -10.625 23.25 C-10.625 21.6 -10.625 19.95 -10.625 18.25 C-3.695 18.25 3.235 18.25 10.375 18.25 C10.375 25.25604801 10.36457134 30.01288454 5.53515625 35.2421875 C-0.45295581 40.616992 -4.61122899 42.78484999 -12.734375 42.6328125 C-18.58270761 41.85830359 -22.89133774 38.98366226 -27 34.875 C-31.41546718 27.74232225 -32.96352811 21.68711571 -31.625 13.25 C-28.89477586 6.81170549 -24.51532666 2.80642365 -18.625 -0.75 C-12.54369867 -2.77710044 -5.85611055 -2.70037647 0 0 Z " fill="#404244" transform="translate(660.625,492.75)"/>
<path d="M0 0 C2.8224565 0.98683715 3.83011883 1.83011883 6 4 C6.875 6.25 6.875 6.25 7 8 C5.35 8.66 3.7 9.32 2 10 C1.34 9.34 0.68 8.68 0 8 C-4.07112242 5.28591839 -6.1775917 5.52566476 -11 6 C-13.20857238 7.82786272 -13.20857238 7.82786272 -13.4375 10.4375 C-13.293125 11.283125 -13.14875 12.12875 -13 13 C-8.64812784 16.05422301 -3.7746592 17.73553375 1.16015625 19.62109375 C4.72961335 21.35426893 7.28105603 23.15021708 8.75 26.9296875 C9.25490679 30.85849345 9.17653979 32.64013043 7.375 36.3125 C4.3005442 39.79148946 0.55941534 42.71920083 -4.171875 43.23828125 C-10.01846537 43.40659218 -13.43192863 43.02425335 -18 39 C-22 34.57894737 -22 34.57894737 -22 32 C-20.02 31.34 -18.04 30.68 -16 30 C-15.54625 30.804375 -15.0925 31.60875 -14.625 32.4375 C-13.25274335 35.08856572 -13.25274335 35.08856572 -11 36 C-9.35857459 36.14640501 -7.7101859 36.22096589 -6.0625 36.25 C-4.74958984 36.28867187 -4.74958984 36.28867187 -3.41015625 36.328125 C-0.95198138 36.19515615 -0.95198138 36.19515615 0.78515625 34.640625 C2.18613804 32.99214415 2.18613804 32.99214415 2.5 30.5 C2.26126716 27.82088163 2.26126716 27.82088163 -0.12109375 26.4921875 C-4.24056782 24.35699198 -8.55539131 22.96730052 -12.94140625 21.4765625 C-16.43063655 19.79210649 -17.94086592 18.2561905 -20 15 C-20.91825498 8.57221516 -20.91825498 8.57221516 -18.94140625 5.1875 C-13.6746712 -1.31387026 -7.89807445 -0.69970805 0 0 Z " fill="#414446" transform="translate(339,492)"/>
<path d="M0 0 C1.98 0 3.96 0 6 0 C6.62591479 2.02055018 7.25068609 4.0414546 7.875 6.0625 C8.39707031 7.75052734 8.39707031 7.75052734 8.9296875 9.47265625 C9.99159941 12.97231483 11.00479732 16.48092746 12 20 C12.14622803 19.4652002 12.29245605 18.93040039 12.44311523 18.37939453 C13.10575521 15.96066661 13.77158806 13.54282904 14.4375 11.125 C14.66759766 10.28324219 14.89769531 9.44148437 15.13476562 8.57421875 C15.35712891 7.76855469 15.57949219 6.96289062 15.80859375 6.1328125 C16.11494751 5.01737061 16.11494751 5.01737061 16.42749023 3.87939453 C17 2 17 2 18 0 C19.98 0 21.96 0 24 0 C25.01031065 2.55885226 26.00840145 5.12140376 27 7.6875 C27.42925781 8.7693457 27.42925781 8.7693457 27.8671875 9.87304688 C29.3390502 13.71040321 30.39614998 16.81566589 30 21 C30.66 21 31.32 21 32 21 C32.03867187 20.10861328 32.03867187 20.10861328 32.078125 19.19921875 C32.55245865 12.2674792 34.37922605 6.41175394 37 0 C38.65 0 40.3 0 42 0 C41.22876609 5.74569264 39.61051295 11.19676903 38 16.75 C37.72671875 17.70777344 37.4534375 18.66554688 37.171875 19.65234375 C35.13600498 26.72799003 35.13600498 26.72799003 34 29 C32.02 29 30.04 29 28 29 C26.99263372 26.06497405 25.99539496 23.12660539 25 20.1875 C24.57074219 18.93743164 24.57074219 18.93743164 24.1328125 17.66210938 C23.86210938 16.85966797 23.59140625 16.05722656 23.3125 15.23046875 C23.06113281 14.49207764 22.80976562 13.75368652 22.55078125 12.99291992 C22 11 22 11 22 8 C21.34 8 20.68 8 20 8 C19.83564453 8.90878906 19.83564453 8.90878906 19.66796875 9.8359375 C16.51802657 26.48197343 16.51802657 26.48197343 14 29 C12.33382885 29.04063832 10.66611905 29.042721 9 29 C6.73077983 23.09866465 4.7088221 17.15577251 2.8125 11.125 C2.40354492 9.84496094 2.40354492 9.84496094 1.98632812 8.5390625 C1.72916016 7.724375 1.47199219 6.9096875 1.20703125 6.0703125 C0.9747583 5.33570801 0.74248535 4.60110352 0.50317383 3.84423828 C0 2 0 2 0 0 Z " fill="#434546" transform="translate(504,505)"/>
<path d="M0 0 C4.38773175 2.19386588 7.09334197 4.44520582 9 9 C9 11.31 9 13.62 9 16 C1.74 16 -5.52 16 -13 16 C-10.98848737 22.77489892 -10.98848737 22.77489892 -8 24 C-3.97796256 24.26215068 -3.97796256 24.26215068 0 24 C1.66710346 22.50014391 1.66710346 22.50014391 3 21 C5.6875 21.3125 5.6875 21.3125 8 22 C7.4376049 25.26189156 6.5859495 26.91134848 4 29 C0.9489365 30.01702117 -1.24199061 30.16582083 -4.4375 30.1875 C-5.85869141 30.20876953 -5.85869141 30.20876953 -7.30859375 30.23046875 C-10.81445729 29.93025692 -12.88473515 29.00667327 -15.484375 26.66015625 C-19.07396349 22.12885473 -19.7087555 18.32308143 -19.41796875 12.5859375 C-18.59368693 7.48617519 -16.06528064 4.9414108 -12.3125 1.625 C-8.0324163 -0.4746637 -4.68276744 -0.83081358 0 0 Z " fill="#424243" transform="translate(807,504)"/>
<path d="M0 0 C4.78775956 3.53613714 9.46451416 7.14483704 14 11 C13.75636719 11.83724609 13.75636719 11.83724609 13.5078125 12.69140625 C12.96131152 15.17588379 12.86716673 17.39560443 12.875 19.9375 C12.87242187 20.77152344 12.86984375 21.60554687 12.8671875 22.46484375 C13.00325652 25.06216123 13.42878507 27.46580044 14 30 C9.58595572 34.08915269 5.5658728 37.63450406 0 40 C-5.2064366 30.49259404 -5.86912017 17.10102422 -3.10546875 6.6015625 C-2.17837259 4.31494371 -1.20943594 2.1489085 0 0 Z " fill="#F7A30E" transform="translate(185,494)"/>
<path d="M0 0 C1.98 0 3.96 0 6 0 C6 5.28 6 10.56 6 16 C7.98 14.68 9.96 13.36 12 12 C15.42380748 11.44974523 17.71126913 11.21693707 20.7421875 13.05859375 C22.94094429 14.83127566 24.72743178 16.45486356 26 19 C26.08426094 20.6674606 26.10725143 22.33825187 26.09765625 24.0078125 C26.09443359 24.99394531 26.09121094 25.98007812 26.08789062 26.99609375 C26.07951172 28.02863281 26.07113281 29.06117188 26.0625 30.125 C26.05798828 31.16527344 26.05347656 32.20554687 26.04882812 33.27734375 C26.03701952 35.85161962 26.02055075 38.42578146 26 41 C24.35 41 22.7 41 21 41 C20.98598145 40.16807129 20.98598145 40.16807129 20.97167969 39.31933594 C20.91784278 36.79533519 20.83422746 34.27316186 20.75 31.75 C20.73582031 30.87730469 20.72164062 30.00460937 20.70703125 29.10546875 C20.52638433 23.91775641 20.52638433 23.91775641 18.1796875 19.38671875 C15.92067945 17.66822614 15.92067945 17.66822614 12.375 18.0625 C8.74483076 18.6750845 8.74483076 18.6750845 7 22 C6.6349209 24.22131423 6.6349209 24.22131423 6.5859375 26.66796875 C6.54726563 27.56064453 6.50859375 28.45332031 6.46875 29.37304688 C6.4378125 30.30181641 6.406875 31.23058594 6.375 32.1875 C6.31699219 33.59805664 6.31699219 33.59805664 6.2578125 35.03710938 C6.16356813 37.3578771 6.07795975 39.67863748 6 42 C4.02 42 2.04 42 0 42 C0 28.14 0 14.28 0 0 Z " fill="#484A4A" transform="translate(584,492)"/>
<path d="M0 0 C3.70390021 2.02666238 5.65363011 3.48044516 8 7 C8.22705078 9.4519043 8.22705078 9.4519043 8.1953125 12.32421875 C8.18886719 13.35224609 8.18242187 14.38027344 8.17578125 15.43945312 C8.15902344 16.51130859 8.14226562 17.58316406 8.125 18.6875 C8.11597656 19.77095703 8.10695313 20.85441406 8.09765625 21.97070312 C8.0740734 24.6473571 8.04116126 27.32356797 8 30 C6.02 30 4.04 30 2 30 C1.98541748 29.34402832 1.97083496 28.68805664 1.95581055 28.01220703 C1.88148586 25.04919969 1.78477631 22.08733883 1.6875 19.125 C1.66494141 18.09246094 1.64238281 17.05992187 1.61914062 15.99609375 C1.58369141 15.00996094 1.54824219 14.02382813 1.51171875 13.0078125 C1.48553467 12.09660645 1.45935059 11.18540039 1.43237305 10.24658203 C1.28968994 9.50520996 1.14700684 8.76383789 1 8 C-2.47042703 5.68638198 -3.91834173 5.48979272 -8 6 C-10.71006983 8.82477121 -11.38789489 10.90232065 -11.51171875 14.765625 C-11.54716797 15.65507813 -11.58261719 16.54453125 -11.61914062 17.4609375 C-11.64169922 18.38132812 -11.66425781 19.30171875 -11.6875 20.25 C-11.72166016 21.18585937 -11.75582031 22.12171875 -11.79101562 23.0859375 C-11.87332162 25.39050533 -11.9425263 27.69470119 -12 30 C-13.98 30 -15.96 30 -18 30 C-18 20.43 -18 10.86 -18 1 C-16.02 1 -14.04 1 -12 1 C-11.67 1.66 -11.34 2.32 -11 3 C-10.484375 2.505 -9.96875 2.01 -9.4375 1.5 C-6.04826907 -0.58568057 -3.92467225 -0.47366734 0 0 Z " fill="#484A4C" transform="translate(478,504)"/>
<path d="M0 0 C3.5386994 1.65139305 4.81070153 2.71605229 7 6 C7.22705078 8.4519043 7.22705078 8.4519043 7.1953125 11.32421875 C7.18886719 12.35224609 7.18242187 13.38027344 7.17578125 14.43945312 C7.15902344 15.51130859 7.14226562 16.58316406 7.125 17.6875 C7.11597656 18.77095703 7.10695313 19.85441406 7.09765625 20.97070312 C7.0740734 23.6473571 7.04116126 26.32356797 7 29 C5.35 29 3.7 29 2 29 C1.98598145 28.11477661 1.98598145 28.11477661 1.97167969 27.21166992 C1.91797343 24.53609795 1.83433148 21.86227447 1.75 19.1875 C1.73582031 18.25873047 1.72164063 17.32996094 1.70703125 16.37304688 C1.67480469 15.48037109 1.64257812 14.58769531 1.609375 13.66796875 C1.58842773 12.84578857 1.56748047 12.0236084 1.54589844 11.17651367 C1.16862196 8.83891023 1.16862196 8.83891023 -0.88183594 7.23950195 C-3.57792387 5.66181195 -4.9282746 5.38565492 -8 6 C-11.9630906 9.66218928 -12.49906043 12.70101132 -12.70703125 17.83789062 C-12.72121094 18.65451172 -12.73539062 19.47113281 -12.75 20.3125 C-12.77964844 21.14845703 -12.80929687 21.98441406 -12.83984375 22.84570312 C-12.91016107 24.89662485 -12.95738973 26.94831562 -13 29 C-14.65 29 -16.3 29 -18 29 C-18 19.76 -18 10.52 -18 1 C-16.35 1 -14.7 1 -13 1 C-12.67 1.99 -12.34 2.98 -12 4 C-11.319375 3.34 -10.63875 2.68 -9.9375 2 C-6.26383061 -0.50122172 -4.36916255 -0.54614532 0 0 Z " fill="#46494C" transform="translate(419,504)"/>
<path d="M0 0 C0 0.66 0 1.32 0 2 C0.639375 2.28875 1.27875 2.5775 1.9375 2.875 C4 4 4 4 5 6 C5.37934197 11.02628116 5.02448301 13.92858056 2 18 C0 20 0 20 -3.8125 20.5 C-7.46294035 20.39361194 -7.98530096 20.0122492 -11 17.5 C-13.71458092 13.60756702 -13.66265823 10.63860763 -13 6 C-9.2462563 0.11913487 -6.75563161 -0.12510429 0 0 Z " fill="#F1F1EF" transform="translate(727,509)"/>
<path d="M0 0 C2.69990662 1.79993774 4.5418865 3.083773 6 6 C6.3506291 11.34709374 6.44403637 14.62872307 3 19 C-0.2105502 20.6052751 -3.5173319 20.46895333 -7 20 C-9.82189509 18.33580546 -10.71614764 17.05656158 -11.5625 13.90625 C-12.17492213 10.07861167 -12.2864399 7.67313376 -10.75 4.0625 C-7.44283433 0.16476903 -4.97151686 -0.59658202 0 0 Z " fill="#F2F2F1" transform="translate(692,509)"/>
<path d="M0 0 C0.66 0 1.32 0 2 0 C1.9278125 0.69480469 1.855625 1.38960938 1.78125 2.10546875 C1.45014335 5.73384583 1.20180699 9.36255197 1 13 C0.9577832 13.75571289 0.91556641 14.51142578 0.87207031 15.29003906 C-0.7265929 48.94394916 10.86480012 79.48337965 32.8125 104.75 C40.71987227 113.19199021 50.27088567 119.81560174 60 126 C59.01 126.495 59.01 126.495 58 127 C36.78112369 116.13269356 19.66186667 96.51375645 10 75 C10 74.34 10 73.68 10 73 C9.34 73 8.68 73 8 73 C5.00318992 64.70624517 2.23080993 56.91765652 2 48 C1.34 48 0.68 48 0 48 C-2.48581185 31.90880719 -3.22660251 16.04658571 0 0 Z " fill="#3C4043" transform="translate(87,489)"/>
<path d="M0 0 C2.69990662 1.79993774 4.5418865 3.083773 6 6 C6.5811138 13.08958838 6.5811138 13.08958838 4.125 16.9375 C1.62131796 19.36754434 0.63814131 19.91491449 -2.8125 20.375 C-6 20 -6 20 -8.875 18.125 C-11.46702882 14.31319292 -11.7278056 11.91332651 -11.484375 7.3828125 C-11 5 -11 5 -8.875 1.875 C-5.46480804 -0.34903824 -3.99001861 -0.74812849 0 0 Z " fill="#F2F3F2" transform="translate(759,509)"/>
<path d="M0 0 C3.97242476 0.89176882 6.78163938 2.3052649 9.0625 5.6875 C9.8130893 8.83201426 9.74793359 11.53450549 9.0625 14.6875 C7.26856332 17.55779869 6.07986724 19.17881638 3.0625 20.6875 C0.25 21.125 0.25 21.125 -2.9375 20.6875 C-5.86266352 18.14387955 -7.49814848 16.47325133 -8.421875 12.71875 C-8.68593662 8.90452666 -8.06988426 6.29506795 -5.8125 3.1875 C-2.9375 0.6875 -2.9375 0.6875 0 0 Z " fill="#F2F2F1" transform="translate(378.9375,508.3125)"/>
<path d="M0 0 C1.65 0 3.3 0 5 0 C5 2.64 5 5.28 5 8 C7.31 8 9.62 8 12 8 C12 9.32 12 10.64 12 12 C9.69 12 7.38 12 5 12 C5.33 17.94 5.66 23.88 6 30 C8.31 30.66 10.62 31.32 13 32 C13 33.65 13 35.3 13 37 C11.58506449 37.10884119 10.16767057 37.18597617 8.75 37.25 C7.96109375 37.29640625 7.1721875 37.3428125 6.359375 37.390625 C4 37 4 37 1.71875 35.65625 C-1.02029139 31.42318604 -0.42031252 27.16941153 -0.25 22.25 C-0.23195313 21.26644531 -0.21390625 20.28289063 -0.1953125 19.26953125 C-0.14824126 16.84536217 -0.08250742 14.42317941 0 12 C-1.65 12 -3.3 12 -5 12 C-5 10.68 -5 9.36 -5 8 C-3.35 8 -1.7 8 0 8 C0 5.36 0 2.72 0 0 Z " fill="#36383A" transform="translate(567,497)"/>
<path d="M0 0 C1.98 0 3.96 0 6 0 C6 13.86 6 27.72 6 42 C4.02 42 2.04 42 0 42 C0 28.14 0 14.28 0 0 Z " fill="#474849" transform="translate(777,492)"/>
<path d="M0 0 C0.66 0 1.32 0 2 0 C3.65060133 12.26160991 3.4558819 24.72899541 2 37 C1.34 37 0.68 37 0 37 C-0.01417969 37.680625 -0.02835938 38.36125 -0.04296875 39.0625 C-0.49649227 48.28005901 -3.02402924 56.34662377 -6 65 C-6.66 65 -7.32 65 -8 65 C-8.18369141 66.09634766 -8.18369141 66.09634766 -8.37109375 67.21484375 C-10.8765154 78.3102825 -19.00992871 89.22725865 -27 97 C-28.0325364 98.21935228 -29.05423337 99.44800422 -30.0625 100.6875 C-36.68698446 108.32446025 -45.0941511 115.2172293 -54 120 C-54.66 119.67 -55.32 119.34 -56 119 C-55.31035156 118.5153125 -54.62070312 118.030625 -53.91015625 117.53125 C-48.21181412 113.46658895 -42.87810023 109.26512137 -37.77734375 104.46875 C-36 103 -36 103 -34 103 C-33.74347656 102.41992188 -33.48695313 101.83984375 -33.22265625 101.2421875 C-31.88700357 98.79277972 -30.37075692 97.13246274 -28.4375 95.125 C-4.11124988 68.23809198 0.66191681 34.75911876 0 0 Z " fill="#3B3F42" transform="translate(936,494)"/>
<path d="M0 0 C2.8224565 0.98683715 3.83011883 1.83011883 6 4 C6.875 6.25 6.875 6.25 7 8 C5.35 8.66 3.7 9.32 2 10 C1.34 9.34 0.68 8.68 0 8 C-4.07112242 5.28591839 -6.1775917 5.52566476 -11 6 C-13.26839983 7.83265325 -13.26839983 7.83265325 -13.1875 10.5625 C-13.27003323 12.94689723 -13.27003323 12.94689723 -12 14 C-11.95919217 15.99958364 -11.95745644 18.00045254 -12 20 C-14.88949684 19.68762196 -16.58633099 19.35661121 -18.8125 17.4375 C-20.51381497 13.94532717 -20.79266234 10.7543371 -20 7 C-15.24911164 -1.18208551 -8.65692351 -0.76693618 0 0 Z " fill="#3F4143" transform="translate(339,492)"/>
<path d="M0 0 C0 0.99 0 1.98 0 3 C-0.83144531 3.36351562 -0.83144531 3.36351562 -1.6796875 3.734375 C-2.76636719 4.23710937 -2.76636719 4.23710937 -3.875 4.75 C-4.59429688 5.07484375 -5.31359375 5.3996875 -6.0546875 5.734375 C-8.4201258 7.27333486 -9.10016243 8.33918998 -10 11 C-10.10301939 13.3028892 -10.10301939 13.3028892 -9.75 15.625 C-9.66234375 16.40101563 -9.5746875 17.17703125 -9.484375 17.9765625 C-9.13545643 20.21325027 -9.13545643 20.21325027 -7 22 C-7 23.32 -7 24.64 -7 26 C-3.535 25.505 -3.535 25.505 0 25 C0.33 25.99 0.66 26.98 1 28 C-8.69040885 28.91643096 -8.69040885 28.91643096 -11.80859375 26.734375 C-16.01652501 21.58996053 -16.44906219 17.51908035 -16.42578125 11.0625 C-15.78309618 6.43988442 -13.57552792 3.86227494 -10 1 C-6.78548731 -0.60725635 -3.56387464 -0.05748185 0 0 Z " fill="#3A3C3D" transform="translate(691,505)"/>
<path d="M0 0 C6.93 0 13.86 0 21 0 C21 7.7791032 20.35953175 12.03546011 15.5625 18.0625 C13 20 13 20 10.6875 19.8125 C10.130625 19.544375 9.57375 19.27625 9 19 C9 19.66 9 20.32 9 21 C8.34 21 7.68 21 7 21 C7.33 20.01 7.66 19.02 8 18 C8.66 18 9.32 18 10 18 C10.103125 17.443125 10.20625 16.88625 10.3125 16.3125 C11.13086853 13.55980585 12.52598918 11.4566847 14 9 C14.33 7.68 14.66 6.36 15 5 C10.05 5 5.1 5 0 5 C0 3.35 0 1.7 0 0 Z " fill="#3F4245" transform="translate(650,511)"/>
<path d="M0 0 C0.33 0 0.66 0 1 0 C1.07451364 4.3049777 1.12877223 8.60960734 1.16479492 12.91503906 C1.17982196 14.37767075 1.20024955 15.84025782 1.22631836 17.30273438 C1.26297267 19.4128728 1.27978676 21.52241226 1.29296875 23.6328125 C1.3086792 24.90012207 1.32438965 26.16743164 1.34057617 27.47314453 C0.84279027 32.62799408 -0.72880309 35.8528223 -4.5625 39.3125 C-9.29574126 42.58935934 -13.34605492 42.49940209 -19 42 C-22.74216409 40.40758975 -24.87672063 38.46429791 -27 35 C-27 34.34 -27 33.68 -27 33 C-24.75 32.25 -24.75 32.25 -22 32 C-21.071875 32.9590625 -21.071875 32.9590625 -20.125 33.9375 C-18.08557992 36.28346021 -18.08557992 36.28346021 -14.75 36.6875 C-10.06708468 35.82896552 -8.11371902 33.91258183 -4.796875 30.62890625 C-3 29 -3 29 0 28 C0 18.76 0 9.52 0 0 Z " fill="#3A3C3E" transform="translate(393,505)"/>
<path d="M0 0 C4.02301023 0.59762109 6.95239481 1.91602021 10.5 3.875 C15.93953329 6.68553759 21.0954784 8.20061293 27.08984375 9.359375 C30 10 30 10 32.13128662 11.00221252 C36.0318909 12.35890927 39.70446504 12.45670874 43.80957031 12.60522461 C44.68450764 12.64253409 45.55944496 12.67984358 46.46089554 12.71828365 C57.31861856 13.14632025 68.18218449 13.23063197 79.046875 13.31640625 C81.28273849 13.33704306 83.51859867 13.35804091 85.75445557 13.37937927 C91.56729408 13.43390702 97.38016361 13.48361422 103.1930542 13.53222656 C109.1534696 13.58295611 115.11384139 13.63837028 121.07421875 13.69335938 C132.71610836 13.80008988 144.35803624 13.90171445 156 14 C156 14.33 156 14.66 156 15 C142.32526766 15.02326963 128.65054011 15.04098914 114.97579193 15.05181217 C108.62464188 15.0570092 102.27350548 15.06404847 95.92236328 15.07543945 C89.78207771 15.08638213 83.64180519 15.09230073 77.50151062 15.09487724 C75.17021988 15.09671113 72.83892977 15.10029181 70.50764465 15.10573006 C34.28877842 15.18678407 34.28877842 15.18678407 23.375 11.375 C22.59084717 11.1157373 21.80669434 10.85647461 20.9987793 10.58935547 C13.64767504 8.06748198 6.80001614 4.74943794 0 1 C0 0.67 0 0.34 0 0 Z " fill="#999B9C" transform="translate(147,616)"/>
<path d="M0 0 C1.98 0 3.96 0 6 0 C6 9.9 6 19.8 6 30 C4.02 30 2.04 30 0 30 C0 20.1 0 10.2 0 0 Z " fill="#4B4D4E" transform="translate(551,504)"/>
<path d="M0 0 C1.98 0 3.96 0 6 0 C6 9.9 6 19.8 6 30 C4.02 30 2.04 30 0 30 C0 20.1 0 10.2 0 0 Z " fill="#4E5152" transform="translate(447,504)"/>
<path d="M0 0 C1.98 0 3.96 0 6 0 C6 9.9 6 19.8 6 30 C4.02 30 2.04 30 0 30 C0 20.1 0 10.2 0 0 Z " fill="#4A4B4C" transform="translate(353,504)"/>
<path d="M0 0 C0 0.33 0 0.66 0 1 C-4.455 1.495 -4.455 1.495 -9 2 C-9 3.32 -9 4.64 -9 6 C-9.33080149 7.33396374 -9.66429155 8.66726269 -10 10 C-10.32949618 13.37058385 -10.43383644 16.63635904 -10 20 C-8.10415891 22.31377147 -8.10415891 22.31377147 -6 24 C-5.75 26.75 -5.75 26.75 -6 29 C-4.02 29 -2.04 29 0 29 C0 29.33 0 29.66 0 30 C-6.06292614 30.41813284 -9.19707988 30.13274522 -14 26 C-17.90903427 20.58319537 -17.78837478 15.46467319 -17 9 C-13.19111898 0.95902896 -8.28480155 -0.4212611 0 0 Z " fill="#434445" transform="translate(759,504)"/>
<path d="M0 0 C0.5775 0.474375 1.155 0.94875 1.75 1.4375 C2.74 1.7675 3.73 2.0975 4.75 2.4375 C6.08827901 5.11405801 5.95578556 7.26184052 6 10.25 C6.02578125 11.28769531 6.0515625 12.32539062 6.078125 13.39453125 C5.7045315 16.85916619 4.88108794 18.69823616 2.75 21.4375 C-0.4375 22.25 -0.4375 22.25 -3.25 22.4375 C-2.59 21.4475 -1.93 20.4575 -1.25 19.4375 C-0.63751083 16.38063398 -0.63751083 16.38063398 -0.375 13 C-0.25382813 11.86691406 -0.13265625 10.73382812 -0.0078125 9.56640625 C0.0547178 6.32799247 0.0547178 6.32799247 -2.2421875 4.15234375 C-2.90476562 3.58644531 -3.56734375 3.02054687 -4.25 2.4375 C-4.25 1.7775 -4.25 1.1175 -4.25 0.4375 C-5.66681634 0.74932069 -7.08344651 1.06198737 -8.5 1.375 C-9.68335938 1.63603516 -9.68335938 1.63603516 -10.890625 1.90234375 C-13.01878703 2.385056 -15.13532842 2.89913178 -17.25 3.4375 C-15.84063685 0.4174361 -14.74836672 -1.89655923 -11.5625 -3.3125 C-7.28004046 -3.7754686 -3.49863061 -2.42960459 0 0 Z " fill="#383A3C" transform="translate(731.25,508.5625)"/>
<path d="M0 0 C2.62109375 -0.140625 2.62109375 -0.140625 5 0 C5.12368591 3.93245085 5.21437336 7.86414798 5.2746582 11.7980957 C5.31214374 13.79353555 5.37567535 15.78843052 5.43945312 17.78320312 C5.45556641 19.03681641 5.47167969 20.29042969 5.48828125 21.58203125 C5.51446533 22.73936768 5.54064941 23.8967041 5.56762695 25.08911133 C5 28 5 28 2.46948242 29.90112305 C1.65455322 30.26375244 0.83962402 30.62638184 0 31 C0.33 28.69 0.66 26.38 1 24 C-0.32 23.67 -1.64 23.34 -3 23 C-2.67 22.360625 -2.34 21.72125 -2 21.0625 C-0.68344106 17.03053824 -0.48784489 13.21021625 -1 9 C-1.35707031 8.30519531 -1.71414063 7.61039063 -2.08203125 6.89453125 C-2.38496094 6.26933594 -2.68789063 5.64414062 -3 5 C-1.9375 2.25 -1.9375 2.25 0 0 Z " fill="#3A3C3F" transform="translate(388,505)"/>
<path d="M0 0 C1.65 0 3.3 0 5 0 C5.36279456 1.28926992 5.71496698 2.58153272 6.0625 3.875 C6.25972656 4.59429687 6.45695312 5.31359375 6.66015625 6.0546875 C7 8 7 8 6 10 C5.84995027 11.3734635 5.75161994 12.7528526 5.68359375 14.1328125 C5.64169922 14.93847656 5.59980469 15.74414062 5.55664062 16.57421875 C5.49766602 17.83685547 5.49766602 17.83685547 5.4375 19.125 C5.37272461 20.39923828 5.37272461 20.39923828 5.30664062 21.69921875 C5.20045764 23.79928223 5.09971503 25.89961948 5 28 C3.35 28 1.7 28 0 28 C0 18.76 0 9.52 0 0 Z " fill="#3A3B3D" transform="translate(401,505)"/>
<path d="M0 0 C3.73584906 1.47169811 3.73584906 1.47169811 5 4 C5.08426094 5.6674606 5.10725143 7.33825187 5.09765625 9.0078125 C5.09443359 9.99394531 5.09121094 10.98007812 5.08789062 11.99609375 C5.07951172 13.02863281 5.07113281 14.06117188 5.0625 15.125 C5.05798828 16.16527344 5.05347656 17.20554687 5.04882812 18.27734375 C5.03701952 20.85161962 5.02055075 23.42578146 5 26 C3.35 26 1.7 26 0 26 C-0.06058594 24.69804688 -0.12117187 23.39609375 -0.18359375 22.0546875 C-0.26804562 20.32811601 -0.35269126 18.601554 -0.4375 16.875 C-0.47681641 16.0190625 -0.51613281 15.163125 -0.55664062 14.28125 C-0.78156402 9.78278208 -1.13540883 5.43193793 -2 1 C-1.34 0.67 -0.68 0.34 0 0 Z " fill="#3B3D3E" transform="translate(605,507)"/>
<path d="M0 0 C3.8356593 -0.35680552 5.50350247 -0.35794008 8.6875 1.9375 C9.450625 2.618125 10.21375 3.29875 11 4 C11.99 4.33 12.98 4.66 14 5 C15 7 15 7 15 14 C7.74 14 0.48 14 -7 14 C-7.33 14.99 -7.66 15.98 -8 17 C-7.125 12.125 -7.125 12.125 -6 11 C-3.47403741 10.76346477 -0.96892793 10.57826308 1.5625 10.4375 C2.27341797 10.39431641 2.98433594 10.35113281 3.71679688 10.30664062 C5.47761912 10.20028223 7.2387832 10.09961154 9 10 C8.35143425 6.77113279 8.35143425 6.77113279 6.1875 4.3125 C4.07842076 3.04705245 2.40611571 2.42966352 0 2 C0 1.34 0 0.68 0 0 Z " fill="#3C3D3D" transform="translate(801,506)"/>
<path d="M0 0 C0.375 3.1875 0.375 3.1875 0 7 C-3.2147046 10.68514918 -4.77321919 11.76325283 -9.5625 12.6875 C-14.31335729 11.73732854 -15.30434227 9.9209567 -18 6 C-17.01 4.68 -16.02 3.36 -15 2 C-14.34 2.33 -13.68 2.66 -13 3 C-8.07525061 3.42310991 -8.07525061 3.42310991 -3.6875 1.5 C-2 0 -2 0 0 0 Z " fill="#EBECED" transform="translate(388,530)"/>
<path d="M0 0 C0.66 0.33 1.32 0.66 2 1 C1.31035156 1.46148437 0.62070313 1.92296875 -0.08984375 2.3984375 C-6.08924705 6.56263238 -10.98729413 10.87444594 -15.73828125 16.41015625 C-19.59770551 20.82949698 -23.82228805 24.88453872 -28 29 C-29.66789441 30.66543801 -31.33471933 32.33194848 -33 34 C-34.33333333 35.33333333 -35.66666667 36.66666667 -37 38 C-35.54997977 33.89160936 -33.6020866 30.49655387 -31 27 C-30.34 27 -29.68 27 -29 27 C-28.7525 26.443125 -28.505 25.88625 -28.25 25.3125 C-22.75510316 15.14694084 -10.13406275 5.24586777 0 0 Z " fill="#9C9EA0" transform="translate(142,411)"/>
<path d="M0 0 C0.66 0 1.32 0 2 0 C2.35671933 3.83473284 2.29771416 5.55342875 0.125 8.8125 C-2.34321303 11.35330753 -3.2636952 11.8995948 -6.75 12.375 C-11.22897544 11.85819514 -12.7737192 10.07264838 -16 7 C-15.34 6.67 -14.68 6.34 -14 6 C-13.34 6.33 -12.68 6.66 -12 7 C-12 6.01 -12 5.02 -12 4 C-11.30132813 3.87882813 -10.60265625 3.75765625 -9.8828125 3.6328125 C-8.51769531 3.38144531 -8.51769531 3.38144531 -7.125 3.125 C-5.76761719 2.88136719 -5.76761719 2.88136719 -4.3828125 2.6328125 C-1.83494012 2.16955297 -1.83494012 2.16955297 0 0 Z " fill="#EBEBEC" transform="translate(763,530)"/>
<path d="M0 0 C1.0064275 1.66279327 2.00585407 3.32983484 3 5 C6.44450737 7.29633824 8.93812283 7.54016485 13 8 C13 8.99 13 9.98 13 11 C9.26301756 12.19583438 5.90024399 12.40347352 2 12 C-2.20415961 9.22366818 -4.60497573 6.88258495 -6 2 C-2.25 0 -2.25 0 0 0 Z " fill="#474A4C" transform="translate(323,522)"/>
<path d="M0 0 C3.49107379 1.16369126 3.85222763 1.88973538 5.6875 4.9375 C6.34298828 6.00291016 6.34298828 6.00291016 7.01171875 7.08984375 C8 9 8 9 8 11 C8.66 11 9.32 11 10 11 C17.32927952 24.67647196 24.31067381 39.15563552 24 55 C23.67 55 23.34 55 23 55 C22.85304688 54.175 22.70609375 53.35 22.5546875 52.5 C19.06672852 34.53901584 11.95416543 18.3383175 1.5390625 3.30078125 C0 1 0 1 0 0 Z " fill="#3B3E42" transform="translate(912,439)"/>
<path d="M0 0 C0.66 0.33 1.32 0.66 2 1 C2 7.27 2 13.54 2 20 C0.35 20 -1.3 20 -3 20 C-3.08089542 17.22858283 -3.14044062 14.45952181 -3.1875 11.6875 C-3.22520508 10.50897461 -3.22520508 10.50897461 -3.26367188 9.30664062 C-3.27333984 8.54931641 -3.28300781 7.79199219 -3.29296875 7.01171875 C-3.3086792 6.31522217 -3.32438965 5.61872559 -3.34057617 4.90112305 C-2.90238443 2.45510217 -1.86562642 1.57297914 0 0 Z " fill="#383B3D" transform="translate(424,513)"/>
<path d="M0 0 C2.9375 2.375 2.9375 2.375 5 5 C5 5.66 5 6.32 5 7 C-0.61 7 -6.22 7 -12 7 C-9.29735184 0.2433796 -7.07111224 -0.8534101 0 0 Z " fill="#EAEBEB" transform="translate(806,509)"/>
<path d="M0 0 C18.82962415 2.81564473 36.4572704 19.97290806 48 34 C47.505 34.99 47.505 34.99 47 36 C46.36835937 35.26136719 45.73671875 34.52273438 45.0859375 33.76171875 C32.28343705 19.10907562 17.33683767 9.56140132 0 1 C0 0.67 0 0.34 0 0 Z " fill="#525559" transform="translate(864,403)"/>
<path d="M0 0 C3.24263915 3.13690092 6.18704599 6.37100864 9.04516602 9.85913086 C18.22692692 21.00389955 28.52826704 29.67691832 41 37 C40.01 37.495 40.01 37.495 39 38 C24.24124054 30.44126034 10.27918855 17.70574023 1 4 C0.28125 1.70703125 0.28125 1.70703125 0 0 Z " fill="#353A3D" transform="translate(106,578)"/>
<path d="M0 0 C2.125 0.75 2.125 0.75 4 2.3125 C6.84444156 4.23668106 8.75446824 4.03685377 12.125 3.75 C13.115 3.42 14.105 3.09 15.125 2.75 C14.795 3.74 14.465 4.73 14.125 5.75 C12.0625 6.4375 12.0625 6.4375 10.125 6.75 C10.125 7.41 10.125 8.07 10.125 8.75 C11.115 9.08 12.105 9.41 13.125 9.75 C8.38875296 10.12889976 5.02564653 10.19213557 0.6875 8.0625 C-1.9476148 5.68446957 -2.93526802 4.13303514 -3.875 0.75 C-1.875 -0.25 -1.875 -0.25 0 0 Z " fill="#4E5052" transform="translate(746.875,537.25)"/>
<path d="M0 0 C0.33 0 0.66 0 1 0 C1.46747982 6.57068864 1.47616445 10.75649307 -3 16 C-3.495 16.639375 -3.99 17.27875 -4.5 17.9375 C-6 19 -6 19 -8.1875 18.6875 C-8.785625 18.460625 -9.38375 18.23375 -10 18 C-10 18.66 -10 19.32 -10 20 C-10.66 20 -11.32 20 -12 20 C-11.505 18.515 -11.505 18.515 -11 17 C-10.34 17 -9.68 17 -9 17 C-8.88527344 16.42636719 -8.77054688 15.85273437 -8.65234375 15.26171875 C-7.94035768 12.79321615 -6.93309672 10.98023902 -5.5625 8.8125 C-5.13066406 8.11769531 -4.69882812 7.42289063 -4.25390625 6.70703125 C-3 5 -3 5 -1 4 C-0.34786708 1.97536745 -0.34786708 1.97536745 0 0 Z " fill="#373A3C" transform="translate(669,512)"/>
<path d="M0 0 C0.66 0 1.32 0 2 0 C1.9285376 0.76078857 1.8570752 1.52157715 1.78344727 2.30541992 C1.03337786 10.99246833 0.880189 19.59681949 0.9375 28.3125 C0.94253393 29.65038892 0.94709343 30.9882797 0.95117188 32.32617188 C0.96281324 35.55083085 0.97916297 38.7753896 1 42 C0.34 42 -0.32 42 -1 42 C-2.83426844 28.01370318 -2.78379808 13.84442437 0 0 Z " fill="#2E3135" transform="translate(87,489)"/>
<path d="M0 0 C5.64028777 2.92086331 5.64028777 2.92086331 7 7 C4.50638429 5.79618552 2.31856917 4.54571278 0 3 C-1.9896995 2.60986284 -3.99019869 2.26797351 -6 2 C-6 2.66 -6 3.32 -6 4 C-4.68 4.33 -3.36 4.66 -2 5 C-2.59167969 5.12117188 -3.18335938 5.24234375 -3.79296875 5.3671875 C-8.03803585 6.26744643 -12.02439661 7.20456621 -16 9 C-16 7.68 -16 6.36 -16 5 C-10.81298227 0.22248367 -6.9186676 -0.8590292 0 0 Z " fill="#494A4B" transform="translate(807,504)"/>
<path d="M0 0 C1.98 0 3.96 0 6 0 C6.6700834 2.12392506 7.33596797 4.24917524 8 6.375 C8.37125 7.55835938 8.7425 8.74171875 9.125 9.9609375 C10 13 10 13 10 15 C9.34 15 8.68 15 8 15 C7.67 14.01 7.34 13.02 7 12 C6.01 12.99 5.02 13.98 4 15 C3.3299166 12.87607494 2.66403203 10.75082476 2 8.625 C1.62875 7.44164062 1.2575 6.25828125 0.875 5.0390625 C0 2 0 2 0 0 Z " fill="#535455" transform="translate(504,505)"/>
<path d="M0 0 C0.7734375 -0.01675781 1.546875 -0.03351563 2.34375 -0.05078125 C4.5 0.3125 4.5 0.3125 6.34375 1.58203125 C7.5 3.3125 7.5 3.3125 7.1875 5.5 C6.8471875 6.3971875 6.8471875 6.3971875 6.5 7.3125 C5.57767578 7.16941406 5.57767578 7.16941406 4.63671875 7.0234375 C3.42435547 6.85714844 3.42435547 6.85714844 2.1875 6.6875 C1.38699219 6.57148438 0.58648437 6.45546875 -0.23828125 6.3359375 C-2.78723215 6.09716593 -2.78723215 6.09716593 -5.5 8.3125 C-6.16 6.3325 -6.82 4.3525 -7.5 2.3125 C-4.40219052 0.24729368 -3.5459519 0.01772976 0 0 Z " fill="#3E3F41" transform="translate(378.5,503.6875)"/>
<path d="M0 0 C12.88328168 -0.68812781 12.88328168 -0.68812781 16.75 1.75 C18.94124627 3.94124627 19.78185746 4.9460044 20 8 C18.35 8.66 16.7 9.32 15 10 C14.29875 9.360625 13.5975 8.72125 12.875 8.0625 C9.77158767 5.83613898 7.75379861 5.34919057 4 5 C4 4.67 4 4.34 4 4 C6.31 4 8.62 4 11 4 C11 3.34 11 2.68 11 2 C7.37 1.67 3.74 1.34 0 1 C0 0.67 0 0.34 0 0 Z " fill="#454649" transform="translate(326,492)"/>
<path d="M0 0 C0.33 0 0.66 0 1 0 C1.07451364 4.3049777 1.12877223 8.60960734 1.16479492 12.91503906 C1.17982196 14.37767075 1.20024955 15.84025782 1.22631836 17.30273438 C1.26297267 19.4128728 1.27978676 21.52241226 1.29296875 23.6328125 C1.31653442 25.53377686 1.31653442 25.53377686 1.34057617 27.47314453 C0.97214463 31.2884578 -0.08164855 33.7120297 -2 37 C-3.32 36.34 -4.64 35.68 -6 35 C-6.66 35.66 -7.32 36.32 -8 37 C-8.99 36.67 -9.98 36.34 -11 36 C-9.73427767 34.84852339 -8.46222094 33.70400686 -7.1875 32.5625 C-6.47980469 31.92441406 -5.77210938 31.28632812 -5.04296875 30.62890625 C-3 29 -3 29 0 28 C0 18.76 0 9.52 0 0 Z " fill="#66686C" transform="translate(393,505)"/>
<path d="M0 0 C0 0.99 0 1.98 0 3 C0.99 3.33 1.98 3.66 3 4 C2.67 5.32 2.34 6.64 2 8 C2 7.01 2 6.02 2 5 C1.154375 5.66 0.30875 6.32 -0.5625 7 C-4.5069638 9.29496075 -6.51296184 9.58165309 -11 9 C-13.4375 7.5 -13.4375 7.5 -15 6 C-11.40687138 4.0311624 -8.0191867 3.3058952 -4.0234375 2.5625 C-1.7933256 2.1212482 -1.7933256 2.1212482 0 0 Z " fill="#47494C" transform="translate(386,525)"/>
<path d="M0 0 C0.66 0 1.32 0 2 0 C0.87182425 2.98326886 -0.39485297 5.85693456 -1.8046875 8.71484375 C-5.76006105 16.75616583 -9.02360566 24.42586741 -11.2109375 33.14453125 C-11.90637524 35.66118959 -12.73489128 37.72830477 -14 40 C-13.66466272 25.06224838 -7.17072785 12.70446573 0 0 Z " fill="#3E4046" transform="translate(103,449)"/>
<path d="M0 0 C0.33 0.99 0.66 1.98 1 3 C0.01 3.99 -0.98 4.98 -2 6 C-1.34 6 -0.68 6 0 6 C0 5.34 0 4.68 0 4 C0.99 4.33 1.98 4.66 3 5 C-1.11803552 8.15716056 -3.26944013 9.15308842 -8.5 9.1875 C-9.4796875 9.20167969 -10.459375 9.21585938 -11.46875 9.23046875 C-14 9 -14 9 -16 7 C-13.03 7 -10.06 7 -7 7 C-7 6.34 -7 5.68 -7 5 C-8.32 4.34 -9.64 3.68 -11 3 C-10.06027344 2.80083984 -10.06027344 2.80083984 -9.1015625 2.59765625 C-8.28429687 2.42105469 -7.46703125 2.24445312 -6.625 2.0625 C-5.40683594 1.80146484 -5.40683594 1.80146484 -4.1640625 1.53515625 C-1.970537 1.07669307 -1.970537 1.07669307 0 0 Z " fill="#585B5D" transform="translate(659,526)"/>
<path d="M0 0 C4.02301023 0.59762109 6.95239481 1.91602021 10.5 3.875 C15.90316459 6.65965678 20.99363005 8.14223476 26.9296875 9.34375 C31.0929447 10.2336065 34.99257217 11.57362738 39 13 C39 13.33 39 13.66 39 14 C24.92523171 13.24599456 12.22122092 7.62619322 0 1 C0 0.67 0 0.34 0 0 Z " fill="#3C3E40" transform="translate(147,616)"/>
<path d="M0 0 C-0.25 2.375 -0.25 2.375 -1 5 C-4.20360907 7.19506548 -6.9415021 7.21567852 -10.75 7.125 C-11.73484375 7.10695313 -12.7196875 7.08890625 -13.734375 7.0703125 C-14.85585938 7.03550781 -14.85585938 7.03550781 -16 7 C-16 6.67 -16 6.34 -16 6 C-12.535 5.505 -12.535 5.505 -9 5 C-11.07553648 4.4465236 -12.84365964 4 -15 4 C-14.67 3.01 -14.34 2.02 -14 1 C-11.98177083 1.03255208 -9.96354167 1.06510417 -7.9453125 1.09765625 C-4.89335225 0.94444539 -3.35713138 0 0 0 Z " fill="#4C4F52" transform="translate(699,527)"/>
<path d="M0 0 C3.40312738 1.05875074 6.01353231 2.00902154 9 4 C9 4.99 9 5.98 9 7 C7.3125 8.1875 7.3125 8.1875 5 9 C3.33333333 8 1.66666667 7 0 6 C-2.98706231 5.44684031 -5.9699957 5.19143818 -9 5 C-9 4.67 -9 4.34 -9 4 C-6.36 3.67 -3.72 3.34 -1 3 C-0.67 2.01 -0.34 1.02 0 0 Z " fill="#515355" transform="translate(656,492)"/>
<path d="M0 0 C0.66 0.33 1.32 0.66 2 1 C1.29875 1.50789063 0.5975 2.01578125 -0.125 2.5390625 C-2.09853948 3.9709512 -4.06977542 5.40601856 -6.0390625 6.84375 C-7.79759963 8.12437335 -9.56132553 9.3979967 -11.3359375 10.65625 C-15.62363889 13.74470924 -18.7331089 16.85016535 -22 21 C-26.57446809 25.78723404 -26.57446809 25.78723404 -29 27 C-24.09650783 15.96714261 -10.51244291 5.44173515 0 0 Z " fill="#46484D" transform="translate(142,411)"/>
<path d="M0 0 C1.65 0.33 3.3 0.66 5 1 C4.43840585 4.25724605 3.70956113 6.03790401 1 8 C-2.1875 8.6875 -2.1875 8.6875 -5 9 C-4.67 7.68 -4.34 6.36 -4 5 C-5.98 5 -7.96 5 -10 5 C-10 4.67 -10 4.34 -10 4 C-9.04287109 3.81824219 -9.04287109 3.81824219 -8.06640625 3.6328125 C-7.24011719 3.46523438 -6.41382813 3.29765625 -5.5625 3.125 C-4.73878906 2.96257813 -3.91507813 2.80015625 -3.06640625 2.6328125 C-2.38449219 2.42398438 -1.70257812 2.21515625 -1 2 C-0.67 1.34 -0.34 0.68 0 0 Z " fill="#444545" transform="translate(810,525)"/>
<path d="M0 0 C4.77003402 -0.38160272 8.09465992 -0.4609004 12.4375 1.75 C14.78000464 3.80683334 15.96521967 5.10261508 17 8 C13.125 7.125 13.125 7.125 12 6 C11.34 6.66 10.68 7.32 10 8 C7.69 7.01 5.38 6.02 3 5 C3.99 4.67 4.98 4.34 6 4 C6 3.01 6 2.02 6 1 C4.02 1 2.04 1 0 1 C0 0.67 0 0.34 0 0 Z " fill="#555759" transform="translate(685,504)"/>
<path d="M0 0 C1.9375 1.1875 1.9375 1.1875 3.9375 3.1875 C5.92571313 3.58514263 7.92694339 3.92525349 9.9375 4.1875 C7.00029492 5.71049523 4.0206351 6.98850302 0.9375 8.1875 C-3.9375 3.5625 -3.9375 3.5625 -5.0625 0.1875 C-2.0625 -0.8125 -2.0625 -0.8125 0 0 Z " fill="#414345" transform="translate(371.0625,537.8125)"/>
<path d="M0 0 C4.95 0.99 9.9 1.98 15 3 C14.67 3.99 14.34 4.98 14 6 C12.22992286 6.08114106 10.45877902 6.13925505 8.6875 6.1875 C7.70136719 6.22230469 6.71523438 6.25710938 5.69921875 6.29296875 C3 6 3 6 1.14453125 4.67578125 C0 3 0 3 0 0 Z " fill="#36383A" transform="translate(638,527)"/>
<path d="M0 0 C4.455 0.99 4.455 0.99 9 2 C9 3.65 9 5.3 9 7 C7.54257537 7.08096803 6.08387193 7.13917774 4.625 7.1875 C3.81289063 7.22230469 3.00078125 7.25710938 2.1640625 7.29296875 C1.44992187 7.19628906 0.73578125 7.09960938 0 7 C-0.66 6.01 -1.32 5.02 -2 4 C-1.34 2.68 -0.68 1.36 0 0 Z " fill="#444748" transform="translate(571,527)"/>
<path d="M0 0 C0.598125 0.763125 1.19625 1.52625 1.8125 2.3125 C3.46959332 4.3483575 5.10297674 6.1978279 7 8 C6.01 8.33 5.02 8.66 4 9 C4 8.34 4 7.68 4 7 C3.34 7 2.68 7 2 7 C2.33 8.32 2.66 9.64 3 11 C-1.20626034 9.49776416 -2.73900021 6.71449966 -5 3 C-4.360625 2.690625 -3.72125 2.38125 -3.0625 2.0625 C-1.06389179 1.1654837 -1.06389179 1.1654837 0 0 Z " fill="#4A4C4E" transform="translate(636,520)"/>
<path d="M0 0 C3.465 1.485 3.465 1.485 7 3 C7 6.63 7 10.26 7 14 C6.67 13.34 6.34 12.68 6 12 C5.01 12.33 4.02 12.66 3 13 C1.70074209 8.66914029 0.656379 4.48525648 0 0 Z " fill="#3A3C3E" transform="translate(696,509)"/>
<path d="M0 0 C3.3 0.99 6.6 1.98 10 3 C9.34 3.66 8.68 4.32 8 5 C8 6.32 8 7.64 8 9 C4.7 8.01 1.4 7.02 -2 6 C-1.34 5.67 -0.68 5.34 0 5 C0 3.35 0 1.7 0 0 Z " fill="#505255" transform="translate(327,507)"/>
<path d="M0 0 C1.93166016 0.01740234 1.93166016 0.01740234 3.90234375 0.03515625 C5.19269531 0.04417969 6.48304688 0.05320312 7.8125 0.0625 C8.81152344 0.07410156 9.81054688 0.08570313 10.83984375 0.09765625 C10.50984375 1.08765625 10.17984375 2.07765625 9.83984375 3.09765625 C5.87984375 3.75765625 1.91984375 4.41765625 -2.16015625 5.09765625 C-2.82015625 3.77765625 -3.48015625 2.45765625 -4.16015625 1.09765625 C-3.16015625 0.09765625 -3.16015625 0.09765625 0 0 Z " fill="#333537" transform="translate(327.16015625,492.90234375)"/>
<path d="M0 0 C0.33 0.99 0.66 1.98 1 3 C0.67 3.66 0.34 4.32 0 5 C0.99 5.33 1.98 5.66 3 6 C-1.85359495 10.01676824 -7.04972335 9.28136159 -13 9 C-13 8.67 -13 8.34 -13 8 C-10.36 7.67 -7.72 7.34 -5 7 C-5 6.34 -5 5.68 -5 5 C-6.65 5.66 -8.3 6.32 -10 7 C-10 6.01 -10 5.02 -10 4 C-8.906875 3.896875 -7.81375 3.79375 -6.6875 3.6875 C-3.14440371 3.02692273 -2.06756277 2.7972908 0 0 Z " fill="#4F5152" transform="translate(730,525)"/>
<path d="M0 0 C0.66 0.33 1.32 0.66 2 1 C2 1.99 2 2.98 2 4 C2.99 4 3.98 4 5 4 C5 5.65 5 7.3 5 9 C1.25 10.125 1.25 10.125 -1 9 C-1.75 5.5625 -1.75 5.5625 -2 2 C-1.34 1.34 -0.68 0.68 0 0 Z " fill="#353639" transform="translate(532,522)"/>
<path d="M0 0 C2.45823172 3.68734758 3.01242616 6.69699971 4 11 C2.35 11.66 0.7 12.32 -1 13 C-3.33846154 5.73846154 -3.33846154 5.73846154 -1.625 2 C-1.08875 1.34 -0.5525 0.68 0 0 Z " fill="#4A4D4E" transform="translate(530,512)"/>
<path d="M0 0 C0.78375 0.04125 1.5675 0.0825 2.375 0.125 C3 2.5 3 2.5 3.375 5.125 C2.715 5.785 2.055 6.445 1.375 7.125 C-1.25 6.75 -1.25 6.75 -3.625 6.125 C-4.25 4.25 -4.25 4.25 -4.625 2.125 C-2.625 0.125 -2.625 0.125 0 0 Z " fill="#4B4D4F" transform="translate(356.625,491.875)"/>
<path d="M0 0 C3.96 0 7.92 0 12 0 C12 1.32 12 2.64 12 4 C8.78817851 5.90608098 6.46117397 6.22266247 2.75 6.125 C1.85796875 6.10695313 0.9659375 6.08890625 0.046875 6.0703125 C-0.96632813 6.03550781 -0.96632813 6.03550781 -2 6 C-2 5.67 -2 5.34 -2 5 C0.64 4.34 3.28 3.68 6 3 C6 2.67 6 2.34 6 2 C3.03 1.505 3.03 1.505 0 1 C0 0.67 0 0.34 0 0 Z " fill="#585A5C" transform="translate(329,529)"/>
<path d="M0 0 C1.67542976 0.28604898 3.34385343 0.61781233 5 1 C5.33 2.65 5.66 4.3 6 6 C3.125 6.625 3.125 6.625 0 7 C-0.66 6.34 -1.32 5.68 -2 5 C-1.46428571 1.46428571 -1.46428571 1.46428571 0 0 Z " fill="#404345" transform="translate(552,492)"/>
<path d="M0 0 C0 0.99 0 1.98 0 3 C-1.32 3.33 -2.64 3.66 -4 4 C-4 4.66 -4 5.32 -4 6 C-3.01 6.33 -2.02 6.66 -1 7 C-3.97 7 -6.94 7 -10 7 C-10.33 5.68 -10.66 4.36 -11 3 C-7.37 2.01 -3.74 1.02 0 0 Z " fill="#464749" transform="translate(761,540)"/>
<path d="M0 0 C2.5 0.125 2.5 0.125 3.5 1.125 C3.625 3.625 3.625 3.625 3.5 6.125 C2.5 7.125 2.5 7.125 -0.0625 7.1875 C-1.2690625 7.1565625 -1.2690625 7.1565625 -2.5 7.125 C-2.88133299 5.1335944 -3.21325582 3.13220923 -3.5 1.125 C-2.5 0.125 -2.5 0.125 0 0 Z " fill="#424345" transform="translate(449.5,491.875)"/>
<path d="M0 0 C7.70622763 5.29534078 17.02392726 11.82650107 20 21 C19.319375 20.319375 18.63875 19.63875 17.9375 18.9375 C17.47859375 18.47988281 17.0196875 18.02226562 16.546875 17.55078125 C15.48959702 16.49083338 14.43774005 15.42545767 13.390625 14.35546875 C9.59805563 10.50200951 5.66677651 6.9324124 1.50390625 3.48046875 C1.00761719 2.99191406 0.51132812 2.50335938 0 2 C0 1.34 0 0.68 0 0 Z " fill="#3F4346" transform="translate(892,418)"/>
<path d="M0 0 C2.3828125 0.0234375 2.3828125 0.0234375 5.125 0.375 C6.03507812 0.48585938 6.94515625 0.59671875 7.8828125 0.7109375 C8.93082031 0.85402344 8.93082031 0.85402344 10 1 C10 1.99 10 2.98 10 4 C6.32589215 5.17571451 2.83070817 5.07366746 -1 5 C-1.33 4.01 -1.66 3.02 -2 2 C-1.34 1.34 -0.68 0.68 0 0 Z " fill="#383B3D" transform="translate(326,529)"/>
<path d="M0 0 C0.66 0.66 1.32 1.32 2 2 C2.66 1.34 3.32 0.68 4 0 C5.18771723 3.42943519 4.80226223 5.37784675 3.5625 8.75 C3.27503906 9.54921875 2.98757813 10.3484375 2.69140625 11.171875 C2.46324219 11.77515625 2.23507812 12.3784375 2 13 C0.02 13 -1.96 13 -4 13 C-3.67 12.01 -3.34 11.02 -3 10 C-2.01 10 -1.02 10 0 10 C0 6.7 0 3.4 0 0 Z " fill="#47494A" transform="translate(536,521)"/>
<path d="M0 0 C0.33 0 0.66 0 1 0 C1.67138621 3.26988299 2.33629263 6.54105049 3 9.8125 C3.28617187 11.2056543 3.28617187 11.2056543 3.578125 12.62695312 C3.75859375 13.51962891 3.9390625 14.41230469 4.125 15.33203125 C4.29257813 16.15421143 4.46015625 16.9763916 4.6328125 17.82348633 C5 20 5 20 5 23 C4.34 23 3.68 23 3 23 C0.71428571 14.57142857 0.71428571 14.57142857 1 10 C0.34 10 -0.32 10 -1 10 C-0.67 6.7 -0.34 3.4 0 0 Z " fill="#4F5254" transform="translate(88,527)"/>
<path d="M0 0 C0 0.33 0 0.66 0 1 C-1.65 1.33 -3.3 1.66 -5 2 C-4.34 2.33 -3.68 2.66 -3 3 C-3 3.66 -3 4.32 -3 5 C-8.625 7 -8.625 7 -12 7 C-11.64393309 4.41851492 -11.16671807 3.17954253 -9.375 1.25 C-6.16865877 -0.43754802 -3.56651486 -0.20576047 0 0 Z " fill="#505154" transform="translate(419,504)"/>
<path d="M0 0 C-0.5775 0.2475 -1.155 0.495 -1.75 0.75 C-4.56095993 2.3116444 -6.04090197 3.39857475 -8 6 C-8.63864139 9.24129291 -8.69643457 12.4532912 -8.75 15.75 C-8.77964844 16.63816406 -8.80929687 17.52632812 -8.83984375 18.44140625 C-8.91036918 20.62769449 -8.96314637 22.81292768 -9 25 C-9.33 25 -9.66 25 -10 25 C-10.14584064 21.77131254 -10.23424106 18.54347635 -10.3125 15.3125 C-10.35439453 14.40048828 -10.39628906 13.48847656 -10.43945312 12.54882812 C-10.52447667 7.87253291 -10.53966713 5.71955618 -7.65625 1.875 C-4.75258231 -0.17464778 -3.46859326 -0.49551332 0 0 Z " fill="#CCCDCE" transform="translate(600,509)"/>
<path d="M0 0 C1.85772162 0.08984301 3.71247985 0.24611861 5.5625 0.4375 C7.08037109 0.59025391 7.08037109 0.59025391 8.62890625 0.74609375 C9.80259766 0.87177734 9.80259766 0.87177734 11 1 C10.67 2.32 10.34 3.64 10 5 C8.02 5 6.04 5 4 5 C3.67 4.01 3.34 3.02 3 2 C0.98491642 1.26676204 0.98491642 1.26676204 -1 1 C-0.67 0.67 -0.34 0.34 0 0 Z " fill="#353737" transform="translate(795,529)"/>
<path d="M0 0 C2.33944736 0.28730055 4.6739143 0.61936779 7 1 C6.34 2.98 5.68 4.96 5 7 C2.5625 6.25 2.5625 6.25 0 5 C-0.875 2.9375 -0.875 2.9375 -1 1 C-0.67 0.67 -0.34 0.34 0 0 Z " fill="#414447" transform="translate(335,511)"/>
<path d="M0 0 C4.82856166 -0.38628493 8.11485977 -0.45837619 12.5 1.8125 C15 4 15 4 16 7 C13.50638429 5.79618552 11.31856917 4.54571278 9 3 C6.71351152 2.75892674 6.71351152 2.75892674 4.3125 2.875 C3.50425781 2.89304687 2.69601562 2.91109375 1.86328125 2.9296875 C1.24839844 2.95289063 0.63351562 2.97609375 0 3 C0 2.01 0 1.02 0 0 Z " fill="#57585A" transform="translate(798,504)"/>
<path d="M0 0 C1.98 0 3.96 0 6 0 C5.67 2.64 5.34 5.28 5 8 C4.01 7.67 3.02 7.34 2 7 C0.8125 3.4375 0.8125 3.4375 0 0 Z " fill="#404041" transform="translate(504,505)"/>
<path d="M0 0 C-1.59688266 3.19376532 -4.83383035 4.57591496 -8 6 C-8.99 6 -9.98 6 -11 6 C-9.84826645 3.53199953 -8.95216435 1.95216435 -7 0 C-3.99340864 -1.066855 -3.14820941 -1.04940314 0 0 Z " fill="#333438" transform="translate(725,506)"/>
<path d="M0 0 C0.33 0 0.66 0 1 0 C1 1.65 1 3.3 1 5 C1.66 5 2.32 5 3 5 C3.33 6.65 3.66 8.3 4 10 C3.01 10.495 3.01 10.495 2 11 C1.67 10.34 1.34 9.68 1 9 C0.34 9.66 -0.32 10.32 -1 11 C-2.23076923 4.6 -2.23076923 4.6 -1.0625 1.5625 C-0.711875 1.046875 -0.36125 0.53125 0 0 Z " fill="#3B3D3E" transform="translate(511,515)"/>
<path d="M0 0 C2.9375 0.375 2.9375 0.375 6 1 C6.33 1.66 6.66 2.32 7 3 C8.32 2.67 9.64 2.34 11 2 C11.33 2.99 11.66 3.98 12 5 C8.94925785 5.28780586 6.03816258 5.45787911 3 5 C0.9375 2.5 0.9375 2.5 0 0 Z " fill="#373A3B" transform="translate(714,528)"/>
<path d="M0 0 C0.33 0 0.66 0 1 0 C1.33 3.96 1.66 7.92 2 12 C1.01 12.66 0.02 13.32 -1 14 C-1.99 13.34 -2.98 12.68 -4 12 C-3.34 10.68 -2.68 9.36 -2 8 C-1.34 8 -0.68 8 0 8 C0 5.36 0 2.72 0 0 Z " fill="#434446" transform="translate(634,509)"/>
<path d="M0 0 C7.15406617 -0.74521523 11.30223306 0.65292985 17 5 C16.01 5.66 15.02 6.32 14 7 C13.54625 6.38125 13.0925 5.7625 12.625 5.125 C8.81464877 2.04042995 4.76609884 1.69126624 0 1 C0 0.67 0 0.34 0 0 Z " fill="#5F6063" transform="translate(718,504)"/>
<path d="M0 0 C-0.556875 0.226875 -1.11375 0.45375 -1.6875 0.6875 C-4.19910049 1.97749299 -4.19910049 1.97749299 -6.5 4.5 C-8.6790194 6.6790194 -10.19517152 7.8572921 -13 9 C-10.91376881 2.17233428 -7.1449644 -0.66464785 0 0 Z " fill="#4B4C4E" transform="translate(722,505)"/>
<path d="M0 0 C0 3.53930317 -0.69007988 4.27338729 -2.8125 7 C-3.59560547 8.0209375 -3.59560547 8.0209375 -4.39453125 9.0625 C-5.84895185 10.81771318 -7.35760525 12.42172276 -9 14 C-9.99 13.67 -10.98 13.34 -12 13 C-11.34 13 -10.68 13 -10 13 C-9.63261719 12.15695312 -9.63261719 12.15695312 -9.2578125 11.296875 C-7.77073461 8.58134146 -5.95937218 6.53608562 -3.875 4.25 C-3.15054688 3.45078125 -2.42609375 2.6515625 -1.6796875 1.828125 C-0.84824219 0.92320312 -0.84824219 0.92320312 0 0 Z " fill="#404448" transform="translate(912,584)"/>
<path d="M0 0 C1.32 0.99 2.64 1.98 4 3 C2.68 3 1.36 3 0 3 C0 2.01 0 1.02 0 0 Z M-5 1 C-3.0625 1.375 -3.0625 1.375 -1 2 C-0.67 2.66 -0.34 3.32 0 4 C0.99 4.33 1.98 4.66 3 5 C3.33 5.99 3.66 6.98 4 8 C0.21616321 7.07506212 -1.56693694 6.60628829 -3.875 3.375 C-4.24625 2.59125 -4.6175 1.8075 -5 1 Z " fill="#484A4A" transform="translate(795,526)"/>
<path d="M0 0 C0.99 0 1.98 0 3 0 C3 0.99 3 1.98 3 3 C6.465 2.505 6.465 2.505 10 2 C10.33 2.99 10.66 3.98 11 5 C8.03 5 5.06 5 2 5 C1.34 3.35 0.68 1.7 0 0 Z " fill="#343639" transform="translate(681,528)"/>
<path d="M0 0 C1.8125 1.4375 1.8125 1.4375 3 3 C2.01 3.495 2.01 3.495 1 4 C1.33 5.32 1.66 6.64 2 8 C-1.82946843 6.54744301 -3.12050295 4.57104439 -5 1 C-2.6875 0.3125 -2.6875 0.3125 0 0 Z " fill="#494C4E" transform="translate(681,525)"/>
<path d="M0 0 C0.99 0.66 1.98 1.32 3 2 C3 2.99 3 3.98 3 5 C1.35 5.66 -0.3 6.32 -2 7 C-2.99 5.68 -3.98 4.36 -5 3 C-4.360625 2.87625 -3.72125 2.7525 -3.0625 2.625 C-2.0415625 2.315625 -2.0415625 2.315625 -1 2 C-0.67 1.34 -0.34 0.68 0 0 Z " fill="#4E5052" transform="translate(343,495)"/>
<path d="M0 0 C0.66 0 1.32 0 2 0 C1.67 4.29 1.34 8.58 1 13 C0.34 13 -0.32 13 -1 13 C-1.0272415 11.58344207 -1.04650467 10.16672955 -1.0625 8.75 C-1.07410156 7.96109375 -1.08570312 7.1721875 -1.09765625 6.359375 C-1.00385306 4.09308998 -0.63241063 2.1711105 0 0 Z " fill="#3D3F41" transform="translate(87,489)"/>
<path d="M0 0 C5.65020618 0.60108576 10.66164461 2.07528683 16 4 C16 4.33 16 4.66 16 5 C10.43109483 4.52013969 5.32932432 3.70084819 0 2 C0 1.34 0 0.68 0 0 Z " fill="#4F5254" transform="translate(170,625)"/>
<path d="M0 0 C1.65 0.33 3.3 0.66 5 1 C4.4409112 4.24271506 3.5867822 5.93057424 1 8 C0.34 8 -0.32 8 -1 8 C-0.67 5.36 -0.34 2.72 0 0 Z " fill="#4F5051" transform="translate(810,525)"/>
<path d="M0 0 C1.43655854 -0.08131463 2.8744483 -0.13933559 4.3125 -0.1875 C5.51326172 -0.23970703 5.51326172 -0.23970703 6.73828125 -0.29296875 C9 0 9 0 10.8125 1.375 C12 3 12 3 11.6875 5.1875 C11.3471875 6.0846875 11.3471875 6.0846875 11 7 C10.01 6.67 9.02 6.34 8 6 C8.33 4.68 8.66 3.36 9 2 C6.03 1.67 3.06 1.34 0 1 C0 0.67 0 0.34 0 0 Z " fill="#5C5E61" transform="translate(374,504)"/>
<path d="M0 0 C3.5 0.375 3.5 0.375 5.4375 1.875 C5.788125 2.37 6.13875 2.865 6.5 3.375 C2.16666667 3.375 -2.16666667 3.375 -6.5 3.375 C-4.18408728 0.7060518 -3.74517033 0.40126825 0 0 Z " fill="#5B5C5F" transform="translate(599.5,503.625)"/>
<path d="M0 0 C1.5625 1.1875 1.5625 1.1875 3 3 C2.6875 5.6875 2.6875 5.6875 2 8 C1.67 7.34 1.34 6.68 1 6 C0.34 6 -0.32 6 -1 6 C-1 5.34 -1 4.68 -1 4 C-1.66 3.67 -2.32 3.34 -3 3 C-2.01 2.01 -1.02 1.02 0 0 Z " fill="#454747" transform="translate(370,507)"/>
<path d="M0 0 C-0.33 1.32 -0.66 2.64 -1 4 C-3.3431213 3.74438677 -5.67843403 3.40729228 -8 3 C-8.33 2.34 -8.66 1.68 -9 1 C-5.64919071 -1.10976881 -3.77897651 -1.0497157 0 0 Z " fill="#444549" transform="translate(603,507)"/>
<path d="M0 0 C0 1.32 0 2.64 0 4 C-1.98 4.33 -3.96 4.66 -6 5 C-6 3.68 -6 2.36 -6 1 C-4 0 -4 0 0 0 Z " fill="#343739" transform="translate(699,527)"/>
<path d="M0 0 C5.41538462 -0.36923077 5.41538462 -0.36923077 8.375 1.5 C8.91125 1.995 9.4475 2.49 10 3 C9.67 3.66 9.34 4.32 9 5 C6.03 4.01 3.06 3.02 0 2 C0 1.34 0 0.68 0 0 Z " fill="#303233" transform="translate(801,506)"/>
<path d="M0 0 C0.66 0.33 1.32 0.66 2 1 C1.113125 1.721875 0.22625 2.44375 -0.6875 3.1875 C-3.63741207 5.63992096 -6.32793794 8.24934788 -9 11 C-6.92623208 6.33402219 -4.25832657 2.83888438 0 0 Z " fill="#52555A" transform="translate(122,427)"/>
<path d="M0 0 C0.99 0 1.98 0 3 0 C3 1.65 3 3.3 3 5 C4.98 5 6.96 5 9 5 C9 5.33 9 5.66 9 6 C2.84765625 6.09765625 2.84765625 6.09765625 1 6 C0 5 0 5 -0.0625 2.4375 C-0.041875 1.633125 -0.02125 0.82875 0 0 Z " fill="#5B5D61" transform="translate(750,528)"/>
<path d="M0 0 C0 0.33 0 0.66 0 1 C-0.62648438 1.02578125 -1.25296875 1.0515625 -1.8984375 1.078125 C-2.71570313 1.13484375 -3.53296875 1.1915625 -4.375 1.25 C-5.18710937 1.29640625 -5.99921875 1.3428125 -6.8359375 1.390625 C-9.18838927 1.7922092 -9.18838927 1.7922092 -10.2890625 4.046875 C-10.52367187 4.69140625 -10.75828125 5.3359375 -11 6 C-11.66 5.67 -12.32 5.34 -13 5 C-13 4.34 -13 3.68 -13 3 C-8.70614007 -0.4887612 -5.28129105 -0.26854022 0 0 Z " fill="#646566" transform="translate(759,504)"/>
<path d="M0 0 C1.98 0 3.96 0 6 0 C6 0.99 6 1.98 6 3 C3.69 3.33 1.38 3.66 -1 4 C-0.67 2.68 -0.34 1.36 0 0 Z " fill="#2E3033" transform="translate(330,530)"/>
<path d="M0 0 C1.32 0.66 2.64 1.32 4 2 C3.01 2.495 3.01 2.495 2 3 C2 4.32 2 5.64 2 7 C0.68 6.34 -0.64 5.68 -2 5 C-1.34 3.35 -0.68 1.7 0 0 Z " fill="#4B4E4F" transform="translate(748,525)"/>
<path d="M0 0 C2.475 0.495 2.475 0.495 5 1 C4.34 2.98 3.68 4.96 3 7 C2.34 6.67 1.68 6.34 1 6 C0.375 2.9375 0.375 2.9375 0 0 Z " fill="#393B3E" transform="translate(525,510)"/>
<path d="M0 0 C2.0625 0.4375 2.0625 0.4375 4 1 C4 1.66 4 2.32 4 3 C2.4375 4.1875 2.4375 4.1875 0 5 C-3.75 3.625 -3.75 3.625 -7 2 C-7 1.67 -7 1.34 -7 1 C-5.5459375 1.0309375 -5.5459375 1.0309375 -4.0625 1.0625 C-1.12534105 1.35618499 -1.12534105 1.35618499 0 0 Z " fill="#444649" transform="translate(762,507)"/>
<path d="M0 0 C0.66 1.32 1.32 2.64 2 4 C0.35 4 -1.3 4 -3 4 C-3 3.34 -3 2.68 -3 2 C-4.32 1.67 -5.64 1.34 -7 1 C-4.53721199 -0.231394 -2.7204945 -0.07159196 0 0 Z " fill="#393A3D" transform="translate(419,505)"/>
<path d="M0 0 C0.66 0 1.32 0 2 0 C0.98823563 3.40320742 0.35156418 4.75725331 -2.625 6.8125 C-3.40875 7.204375 -4.1925 7.59625 -5 8 C-4 6 -3 4 -2 2 C-1.34 2 -0.68 2 0 2 C0 1.34 0 0.68 0 0 Z " fill="#3F4144" transform="translate(767,538)"/>
<path d="M0 0 C0.886875 0.103125 1.77375 0.20625 2.6875 0.3125 C2.6875 0.6425 2.6875 0.9725 2.6875 1.3125 C1.32625 1.68375 1.32625 1.68375 -0.0625 2.0625 C-3.41601489 3.35231342 -4.98958236 4.63221042 -7.3125 7.3125 C-7.6425 6.6525 -7.9725 5.9925 -8.3125 5.3125 C-4.12788462 0.38942308 -4.12788462 0.38942308 0 0 Z " fill="#CDCED0" transform="translate(689.3125,508.6875)"/>
<path d="M0 0 C0.99 0.33 1.98 0.66 3 1 C1.35 2.98 -0.3 4.96 -2 7 C-2.6875 5.1875 -2.6875 5.1875 -3 3 C-1.5625 1.25 -1.5625 1.25 0 0 Z " fill="#E6E6E7" transform="translate(718,510)"/>
<path d="M0 0 C1.98 0.495 1.98 0.495 4 1 C4 1.99 4 2.98 4 4 C2.35 4.33 0.7 4.66 -1 5 C-0.67 3.35 -0.34 1.7 0 0 Z " fill="#3B3F40" transform="translate(371,526)"/>
<path d="M0 0 C0.66 0 1.32 0 2 0 C1.67 1.32 1.34 2.64 1 4 C0.34 4 -0.32 4 -1 4 C-1.33 4.99 -1.66 5.98 -2 7 C-3 6 -3 6 -3.0625 3.4375 C-3.041875 2.633125 -3.02125 1.82875 -3 1 C-2.01 1.33 -1.02 1.66 0 2 C0 1.34 0 0.68 0 0 Z " fill="#353839" transform="translate(345,517)"/>
<path d="M0 0 C0.66 0 1.32 0 2 0 C2.33 1.98 2.66 3.96 3 6 C1.35 6.66 -0.3 7.32 -2 8 C-1.34 5.36 -0.68 2.72 0 0 Z " fill="#BFC3C6" transform="translate(524,513)"/>
<path d="M0 0 C0.66 0 1.32 0 2 0 C1.25 7.625 1.25 7.625 -1 11 C-0.979375 9.88625 -0.95875 8.7725 -0.9375 7.625 C-0.73619282 4.16784079 -0.73619282 4.16784079 -2 2 C-1.34 2 -0.68 2 0 2 C0 1.34 0 0.68 0 0 Z " fill="#3C3F41" transform="translate(521,515)"/>
<path d="M0 0 C0.33 0 0.66 0 1 0 C1 2.97 1 5.94 1 9 C0.34 9 -0.32 9 -1 9 C-1.33 9.99 -1.66 10.98 -2 12 C-2.33 10.68 -2.66 9.36 -3 8 C-2.01 7.67 -1.02 7.34 0 7 C0 4.69 0 2.38 0 0 Z " fill="#2A2D2E" transform="translate(633,508)"/>
<path d="M0 0 C4.455 0.99 4.455 0.99 9 2 C9 2.66 9 3.32 9 4 C7.35 4.33 5.7 4.66 4 5 C2.68 3.35 1.36 1.7 0 0 Z " fill="#444648" transform="translate(806,509)"/>
<path d="M0 0 C0.66 0.66 1.32 1.32 2 2 C3.32 1.34 4.64 0.68 6 0 C4.92598892 2.91517292 4.22189824 4.77810176 2 7 C0 5 0 5 -0.125 2.375 C-0.08375 1.59125 -0.0425 0.8075 0 0 Z " fill="#525457" transform="translate(465,505)"/>
<path d="M0 0 C2.475 0.99 2.475 0.99 5 2 C4.67 3.32 4.34 4.64 4 6 C2.68 5.34 1.36 4.68 0 4 C0 2.68 0 1.36 0 0 Z " fill="#3D4043" transform="translate(658,495)"/>
<path d="M0 0 C0.33 0.99 0.66 1.98 1 3 C0.34 3 -0.32 3 -1 3 C-1.33 3.99 -1.66 4.98 -2 6 C-3.32 5.67 -4.64 5.34 -6 5 C-4.02 3.35 -2.04 1.7 0 0 Z " fill="#484A4C" transform="translate(639,494)"/>
<path d="M0 0 C0 3 0 3 -1 5 C-2.65 5 -4.3 5 -6 5 C-6 4.34 -6 3.68 -6 3 C-4.02 2.01 -2.04 1.02 0 0 Z " fill="#313335" transform="translate(763,541)"/>
<path d="M0 0 C-0.5775 0.2475 -1.155 0.495 -1.75 0.75 C-4.3002997 2.16683317 -6.01785701 3.87627537 -8 6 C-8.33 5.01 -8.66 4.02 -9 3 C-5.92807025 0.26939578 -4.09590633 -0.34132553 0 0 Z " fill="#D3D4D6" transform="translate(600,509)"/>
<path d="M0 0 C1.65 0 3.3 0 5 0 C5 0.99 5 1.98 5 3 C3.35 3.33 1.7 3.66 0 4 C0 2.68 0 1.36 0 0 Z " fill="#343637" transform="translate(541,505)"/>
</svg>
